QuasarOpen-MASTER-100.ufo
<glyph name="exclam" format="2">
  <advance width="264"/>
  <unicode hex="0021"/>
  <outline>
    <contour>
      <point x="102.0" y="20.0" type="curve" smooth="yes"/>
      <point x="102.0" y="37.0"/>
      <point x="115.0" y="50.0"/>
      <point x="132.0" y="50.0" type="curve" smooth="yes"/>
      <point x="149.0" y="50.0"/>
      <point x="162.0" y="37.0"/>
      <point x="162.0" y="20.0" type="curve" smooth="yes"/>
      <point x="162.0" y="3.0"/>
      <point x="149.0" y="-10.0"/>
      <point x="132.0" y="-10.0" type="curve" smooth="yes"/>
      <point x="115.0" y="-10.0"/>
      <point x="102.0" y="3.0"/>
    </contour>
    <contour>
      <point x="119.0" y="828.0" type="line"/>
      <point x="144.0" y="828.0" type="line"/>
      <point x="144.0" y="204.0" type="line"/>
      <point x="119.0" y="204.0" type="line"/>
    </contour>
  </outline>
</glyph>
<glyph name="uni002C" format="2">
  <advance width="259"/>
  <unicode hex="002C"/>
  <outline>
    <contour>
      <point x="102.0" y="20.0" type="curve" smooth="yes"/>
      <point x="102.0" y="37.0"/>
      <point x="115.0" y="50.0"/>
      <point x="132.0" y="50.0" type="curve" smooth="yes"/>
      <point x="152.0" y="50.0"/>
      <point x="164.0" y="34.0"/>
      <point x="164.0" y="4.0" type="curve" smooth="yes"/>
      <point x="164.0" y="-28.0"/>
      <point x="147.0" y="-55.0"/>
      <point x="132.0" y="-55.0" type="curve"/>
      <point x="132.0" y="-10.0" type="line"/>
      <point x="115.0" y="-10.0"/>
      <point x="102.0" y="3.0"/>
    </contour>
  </outline>
</glyph>
<glyph name="hyphen" format="2">
  <advance width="465"/>
  <unicode hex="002D"/>
  <outline>
    <contour>
      <point x="70.0" y="268.0" type="line"/>
      <point x="395.0" y="268.0" type="line"/>
      <point x="395.0" y="243.0" type="line"/>
      <point x="70.0" y="243.0" type="line"/>
    </contour>
  </outline>
</glyph>
<glyph name="uni002E" format="2">
  <advance width="264"/>
  <unicode hex="002E"/>
  <outline>
    <contour>
      <point x="102.0" y="20.0" type="curve" smooth="yes"/>
      <point x="102.0" y="37.0"/>
      <point x="115.0" y="50.0"/>
      <point x="132.0" y="50.0" type="curve" smooth="yes"/>
      <point x="149.0" y="50.0"/>
      <point x="162.0" y="37.0"/>
      <point x="162.0" y="20.0" type="curve" smooth="yes"/>
      <point x="162.0" y="3.0"/>
      <point x="149.0" y="-10.0"/>
      <point x="132.0" y="-10.0" type="curve" smooth="yes"/>
      <point x="115.0" y="-10.0"/>
      <point x="102.0" y="3.0"/>
    </contour>
  </outline>
</glyph>
<glyph name="zero" format="2">
  <advance width="650"/>
  <unicode hex="0030"/>
  <outline>
    <contour>
      <point x="325.0" y="813.0" type="curve" smooth="yes"/>
      <point x="191.0" y="813.0"/>
      <point x="95.0" y="707.0"/>
      <point x="95.0" y="578.0" type="curve" smooth="yes"/>
      <point x="95.0" y="250.0" type="line" smooth="yes"/>
      <point x="95.0" y="121.0"/>
      <point x="191.0" y="15.0"/>
      <point x="325.0" y="15.0" type="curve" smooth="yes"/>
      <point x="459.0" y="15.0"/>
      <point x="555.0" y="121.0"/>
      <point x="555.0" y="250.0" type="curve" smooth="yes"/>
      <point x="555.0" y="578.0" type="line" smooth="yes"/>
      <point x="555.0" y="707.0"/>
      <point x="459.0" y="813.0"/>
    </contour>
    <contour>
      <point x="325.0" y="838.0" type="curve" smooth="yes"/>
      <point x="474.0" y="838.0"/>
      <point x="580.0" y="723.0"/>
      <point x="580.0" y="578.0" type="curve" smooth="yes"/>
      <point x="580.0" y="250.0" type="line" smooth="yes"/>
      <point x="580.0" y="105.0"/>
      <point x="474.0" y="-10.0"/>
      <point x="325.0" y="-10.0" type="curve" smooth="yes"/>
      <point x="176.0" y="-10.0"/>
      <point x="70.0" y="105.0"/>
      <point x="70.0" y="250.0" type="curve" smooth="yes"/>
      <point x="70.0" y="578.0" type="line" smooth="yes"/>
      <point x="70.0" y="723.0"/>
      <point x="176.0" y="838.0"/>
    </contour>
  </outline>
</glyph>
<glyph name="one" format="2">
  <advance width="165"/>
  <unicode hex="0031"/>
  <outline>
    <contour>
      <point x="70.0" y="828.0" type="line"/>
      <point x="95.0" y="828.0" type="line"/>
      <point x="95.0" y="0.0" type="line"/>
      <point x="70.0" y="0.0" type="line"/>
    </contour>
  </outline>
</glyph>
<glyph name="two" format="2">
  <advance width="536"/>
  <unicode hex="0032"/>
  <outline>
    <contour>
      <point x="497.0" y="0.0" type="line" smooth="yes"/>
      <point x="85.0" y="0.0" type="line" smooth="yes"/>
      <point x="85.0" y="138.0" type="line" smooth="yes"/>
      <point x="85.0" y="287.0"/>
      <point x="159.616210938" y="384.134765625"/>
      <point x="276.0" y="407.0" type="curve" smooth="yes"/>
      <point x="381.521484375" y="427.731445312"/>
      <point x="462.0" y="515.0"/>
      <point x="462.0" y="620.0" type="curve" smooth="yes"/>
      <point x="462.0" y="725.0"/>
      <point x="377.0" y="813.0"/>
      <point x="272.0" y="813.0" type="curve" smooth="yes"/>
      <point x="183.0" y="813.0"/>
      <point x="117.0" y="756.0"/>
      <point x="94.0" y="718.0" type="curve"/>
      <point x="94.0" y="755.0" type="line"/>
      <point x="114.0" y="784.0"/>
      <point x="181.0" y="838.0"/>
      <point x="272.0" y="838.0" type="curve" smooth="yes"/>
      <point x="391.0" y="838.0"/>
      <point x="487.0" y="741.0"/>
      <point x="487.0" y="620.0" type="curve" smooth="yes"/>
      <point x="487.0" y="498.0"/>
      <point x="394.961914062" y="403.204101562"/>
      <point x="276.0" y="381.0" type="curve" smooth="yes"/>
      <point x="171.728515625" y="361.538085938"/>
      <point x="110.0" y="263.0"/>
      <point x="110.0" y="138.0" type="curve" smooth="yes"/>
      <point x="110.0" y="25.0" type="line" smooth="yes"/>
      <point x="497.0" y="25.0" type="line" smooth="yes"/>
    </contour>
  </outline>
</glyph>
<glyph name="four" format="2">
  <advance width="495"/>
  <unicode hex="0034"/>
  <outline>
    <contour>
      <point x="425.0" y="0.0" type="line"/>
      <point x="400.0" y="0.0" type="line"/>
      <point x="400.0" y="402.0" type="line"/>
      <point x="70.0" y="402.0" type="line"/>
      <point x="70.0" y="828.0" type="line"/>
      <point x="95.0" y="828.0" type="line"/>
      <point x="95.0" y="427.0" type="line"/>
      <point x="400.0" y="427.0" type="line"/>
      <point x="400.0" y="828.0" type="line"/>
      <point x="425.0" y="828.0" type="line"/>
    </contour>
  </outline>
</glyph>
<glyph name="five" format="2">
  <advance width="436"/>
  <unicode hex="0035"/>
  <outline>
    <contour>
      <point x="70.0" y="828.0" type="line"/>
      <point x="377.0" y="828.0" type="line"/>
      <point x="377.0" y="803.0" type="line"/>
      <point x="95.0" y="803.0" type="line"/>
      <point x="95.0" y="493.0" type="line"/>
      <point x="70.0" y="493.0" type="line"/>
    </contour>
    <contour>
      <point x="131.0" y="15.0" type="curve" smooth="yes"/>
      <point x="265.0" y="15.0"/>
      <point x="362.0" y="121.0"/>
      <point x="362.0" y="250.0" type="curve" smooth="yes"/>
      <point x="362.0" y="379.0"/>
      <point x="265.0" y="485.0"/>
      <point x="131.0" y="485.0" type="curve" smooth="yes"/>
      <point x="117.0" y="485.0"/>
      <point x="98.0" y="484.0"/>
      <point x="70.0" y="477.0" type="curve"/>
      <point x="70.0" y="503.0" type="line"/>
      <point x="90.0" y="508.0"/>
      <point x="115.0" y="510.0"/>
      <point x="131.0" y="510.0" type="curve" smooth="yes"/>
      <point x="280.0" y="510.0"/>
      <point x="387.0" y="395.0"/>
      <point x="387.0" y="250.0" type="curve" smooth="yes"/>
      <point x="387.0" y="105.0"/>
      <point x="280.0" y="-10.0"/>
      <point x="131.0" y="-10.0" type="curve" smooth="yes"/>
      <point x="115.0" y="-10.0"/>
      <point x="90.0" y="-8.0"/>
      <point x="70.0" y="-3.0" type="curve"/>
      <point x="70.0" y="23.0" type="line"/>
      <point x="98.0" y="16.0"/>
      <point x="117.0" y="15.0"/>
    </contour>
  </outline>
</glyph>
<glyph name="eight" format="2">
  <advance width="557"/>
  <unicode hex="0038"/>
  <outline>
    <contour>
      <point x="462.0" y="620.0" type="curve" smooth="yes"/>
      <point x="462.0" y="725.0"/>
      <point x="376.0" y="813.0"/>
      <point x="271.0" y="813.0" type="curve" smooth="yes"/>
      <point x="166.0" y="813.0"/>
      <point x="80.0" y="725.0"/>
      <point x="80.0" y="620.0" type="curve" smooth="yes"/>
      <point x="80.0" y="515.0"/>
      <point x="166.0" y="427.0"/>
      <point x="271.0" y="427.0" type="curve" smooth="yes"/>
      <point x="376.0" y="427.0"/>
      <point x="462.0" y="515.0"/>
    </contour>
    <contour>
      <point x="487.0" y="620.0" type="curve" smooth="yes"/>
      <point x="487.0" y="499.0"/>
      <point x="390.0" y="407.0"/>
      <point x="271.0" y="407.0" type="curve" smooth="yes"/>
      <point x="152.0" y="407.0"/>
      <point x="55.0" y="499.0"/>
      <point x="55.0" y="620.0" type="curve" smooth="yes"/>
      <point x="55.0" y="739.0"/>
      <point x="152.0" y="838.0"/>
      <point x="271.0" y="838.0" type="curve" smooth="yes"/>
      <point x="390.0" y="838.0"/>
      <point x="487.0" y="739.0"/>
    </contour>
    <contour>
      <point x="80.0" y="209.0" type="curve" smooth="yes"/>
      <point x="80.0" y="104.0"/>
      <point x="166.0" y="15.0"/>
      <point x="271.0" y="15.0" type="curve" smooth="yes"/>
      <point x="376.0" y="15.0"/>
      <point x="462.0" y="104.0"/>
      <point x="462.0" y="209.0" type="curve" smooth="yes"/>
      <point x="462.0" y="314.0"/>
      <point x="376.0" y="402.0"/>
      <point x="271.0" y="402.0" type="curve" smooth="yes"/>
      <point x="166.0" y="402.0"/>
      <point x="80.0" y="314.0"/>
    </contour>
    <contour>
      <point x="55.0" y="209.0" type="curve" smooth="yes"/>
      <point x="55.0" y="330.0"/>
      <point x="152.0" y="422.0"/>
      <point x="271.0" y="422.0" type="curve" smooth="yes"/>
      <point x="390.0" y="422.0"/>
      <point x="487.0" y="330.0"/>
      <point x="487.0" y="209.0" type="curve" smooth="yes"/>
      <point x="487.0" y="90.0"/>
      <point x="390.0" y="-10.0"/>
      <point x="271.0" y="-10.0" type="curve" smooth="yes"/>
      <point x="152.0" y="-10.0"/>
      <point x="55.0" y="90.0"/>
    </contour>
  </outline>
</glyph>
<glyph name="question" format="2">
  <advance width="602"/>
  <unicode hex="003F"/>
  <outline>
    <contour>
      <point x="269.0" y="20.0" type="curve" smooth="yes"/>
      <point x="269.0" y="37.0"/>
      <point x="282.0" y="50.0"/>
      <point x="299.0" y="50.0" type="curve" smooth="yes"/>
      <point x="316.0" y="50.0"/>
      <point x="329.0" y="37.0"/>
      <point x="329.0" y="20.0" type="curve" smooth="yes"/>
      <point x="329.0" y="3.0"/>
      <point x="316.0" y="-10.0"/>
      <point x="299.0" y="-10.0" type="curve" smooth="yes"/>
      <point x="282.0" y="-10.0"/>
      <point x="269.0" y="3.0"/>
    </contour>
    <contour>
      <point x="284.0" y="343.0" type="line"/>
      <point x="309.0" y="343.0" type="line"/>
      <point x="309.0" y="149.0" type="line"/>
      <point x="284.0" y="149.0" type="line"/>
    </contour>
    <contour>
      <point x="296.0" y="343.0" type="line" smooth="yes"/>
      <point x="430.0" y="343.0"/>
      <point x="526.0" y="449.0"/>
      <point x="526.0" y="578.0" type="curve" smooth="yes"/>
      <point x="526.0" y="707.0"/>
      <point x="430.0" y="813.0"/>
      <point x="296.0" y="813.0" type="curve" smooth="yes"/>
      <point x="162.0" y="813.0"/>
      <point x="66.0" y="707.0"/>
      <point x="66.0" y="578.0" type="curve" smooth="yes"/>
      <point x="41.0" y="578.0" type="line" smooth="yes"/>
      <point x="41.0" y="723.0"/>
      <point x="147.0" y="838.0"/>
      <point x="296.0" y="838.0" type="curve" smooth="yes"/>
      <point x="445.0" y="838.0"/>
      <point x="551.0" y="723.0"/>
      <point x="551.0" y="578.0" type="curve" smooth="yes"/>
      <point x="551.0" y="433.0"/>
      <point x="445.0" y="318.0"/>
      <point x="296.0" y="318.0" type="curve" smooth="yes"/>
    </contour>
  </outline>
</glyph>
<glyph name="a" format="2">
  <advance width="615"/>
  <unicode hex="0061"/>
  <outline>
    <contour>
      <point x="300.0" y="485.0" type="curve" smooth="yes"/>
      <point x="166.0" y="485.0"/>
      <point x="70.0" y="379.0"/>
      <point x="70.0" y="250.0" type="curve" smooth="yes"/>
      <point x="70.0" y="121.0"/>
      <point x="166.0" y="15.0"/>
      <point x="300.0" y="15.0" type="curve" smooth="yes"/>
      <point x="362.077148438" y="15.0"/>
      <point x="416.0" y="37.7490234375"/>
      <point x="456.0" y="74.9951171875" type="curve"/>
      <point x="456.0" y="41.1787109375" type="line"/>
      <point x="413.8984375" y="8.955078125"/>
      <point x="360.493164062" y="-10.0"/>
      <point x="300.0" y="-10.0" type="curve" smooth="yes"/>
      <point x="151.0" y="-10.0"/>
      <point x="45.0" y="105.0"/>
      <point x="45.0" y="250.0" type="curve" smooth="yes"/>
      <point x="45.0" y="395.0"/>
      <point x="151.0" y="510.0"/>
      <point x="300.0" y="510.0" type="curve" smooth="yes"/>
      <point x="424.0" y="510.0"/>
      <point x="545.0" y="419.0"/>
      <point x="545.0" y="238.0" type="curve" smooth="yes"/>
      <point x="545.0" y="0.0" type="line"/>
      <point x="520.0" y="0.0" type="line"/>
      <point x="520.0" y="237.0" type="line" smooth="yes"/>
      <point x="520.0" y="404.0"/>
      <point x="409.0" y="485.0"/>
    </contour>
  </outline>
</glyph>
<glyph name="c" format="2">
  <advance width="426"/>
  <unicode hex="0063"/>
  <outline>
    <contour>
      <point x="299.0" y="15.0" type="curve" smooth="yes"/>
      <point x="313.0" y="15.0"/>
      <point x="332.0" y="16.0"/>
      <point x="360.0" y="23.0" type="curve"/>
      <point x="360.0" y="-3.0" type="line"/>
      <point x="340.0" y="-8.0"/>
      <point x="315.0" y="-10.0"/>
      <point x="299.0" y="-10.0" type="curve" smooth="yes"/>
      <point x="150.0" y="-10.0"/>
      <point x="44.0" y="105.0"/>
      <point x="44.0" y="250.0" type="curve" smooth="yes"/>
      <point x="44.0" y="395.0"/>
      <point x="151.0" y="510.0"/>
      <point x="300.0" y="510.0" type="curve" smooth="yes"/>
      <point x="316.0" y="510.0"/>
      <point x="341.0" y="508.0"/>
      <point x="361.0" y="503.0" type="curve"/>
      <point x="361.0" y="477.0" type="line"/>
      <point x="333.0" y="484.0"/>
      <point x="314.0" y="485.0"/>
      <point x="300.0" y="485.0" type="curve" smooth="yes"/>
      <point x="166.0" y="485.0"/>
      <point x="69.0" y="379.0"/>
      <point x="69.0" y="250.0" type="curve" smooth="yes"/>
      <point x="69.0" y="121.0"/>
      <point x="165.0" y="15.0"/>
    </contour>
  </outline>
</glyph>
<glyph name="uni0063" format="2">
  <advance width="436"/>
  <unicode hex="0063"/>
  <outline>
    <contour>
      <point x="305.0" y="15.0" type="curve" smooth="yes"/>
      <point x="319.0" y="15.0"/>
      <point x="338.0" y="16.0"/>
      <point x="366.0" y="23.0" type="curve"/>
      <point x="366.0" y="-3.0" type="line"/>
      <point x="346.0" y="-8.0"/>
      <point x="321.0" y="-10.0"/>
      <point x="305.0" y="-10.0" type="curve" smooth="yes"/>
      <point x="156.0" y="-10.0"/>
      <point x="49.0" y="105.0"/>
      <point x="49.0" y="250.0" type="curve" smooth="yes"/>
      <point x="49.0" y="395.0"/>
      <point x="156.0" y="510.0"/>
      <point x="305.0" y="510.0" type="curve" smooth="yes"/>
      <point x="321.0" y="510.0"/>
      <point x="346.0" y="508.0"/>
      <point x="366.0" y="503.0" type="curve"/>
      <point x="366.0" y="477.0" type="line"/>
      <point x="338.0" y="484.0"/>
      <point x="319.0" y="485.0"/>
      <point x="305.0" y="485.0" type="curve" smooth="yes"/>
      <point x="171.0" y="485.0"/>
      <point x="74.0" y="379.0"/>
      <point x="74.0" y="250.0" type="curve" smooth="yes"/>
      <point x="74.0" y="121.0"/>
      <point x="171.0" y="15.0"/>
    </contour>
  </outline>
</glyph>
<glyph name="e" format="2">
  <advance width="629"/>
  <unicode hex="0065"/>
  <outline>
    <contour>
      <point x="304.0" y="25.0" type="curve" smooth="yes"/>
      <point x="559.0" y="25.0" type="line"/>
      <point x="559.0" y="0.0" type="line"/>
      <point x="304.0" y="0.0" type="line" smooth="yes"/>
      <point x="155.0" y="0.0"/>
      <point x="49.0" y="105.0"/>
      <point x="49.0" y="250.0" type="curve" smooth="yes"/>
      <point x="49.0" y="395.0"/>
      <point x="155.0" y="510.0"/>
      <point x="304.0" y="510.0" type="curve" smooth="yes"/>
      <point x="453.0" y="510.0"/>
      <point x="559.0" y="395.0"/>
      <point x="559.0" y="250.0" type="curve" smooth="yes"/>
      <point x="559.0" y="188.881835938"/>
      <point x="540.166992188" y="133.092773438"/>
      <point x="507.219726562" y="89.0" type="curve"/>
      <point x="473.774414062" y="89.0" type="line"/>
      <point x="511.770507812" y="131.174804688"/>
      <point x="534.0" y="187.924804688"/>
      <point x="534.0" y="250.0" type="curve" smooth="yes"/>
      <point x="534.0" y="379.0"/>
      <point x="438.0" y="485.0"/>
      <point x="304.0" y="485.0" type="curve" smooth="yes"/>
      <point x="170.0" y="485.0"/>
      <point x="74.0" y="379.0"/>
      <point x="74.0" y="250.0" type="curve" smooth="yes"/>
      <point x="74.0" y="121.0"/>
      <point x="170.0" y="25.0"/>
    </contour>
  </outline>
</glyph>
<glyph name="f" format="2">
  <advance width="417"/>
  <unicode hex="0066"/>
  <outline>
    <contour>
      <point x="336.0" y="838.0" type="curve" smooth="yes"/>
      <point x="352.0" y="838.0"/>
      <point x="377.0" y="836.0"/>
      <point x="397.0" y="831.0" type="curve"/>
      <point x="397.0" y="805.0" type="line"/>
      <point x="369.0" y="812.0"/>
      <point x="350.0" y="813.0"/>
      <point x="336.0" y="813.0" type="curve" smooth="yes"/>
      <point x="203.0" y="813.0"/>
      <point x="105.0" y="710.0"/>
      <point x="105.0" y="577.0" type="curve" smooth="yes"/>
      <point x="105.0" y="500.0" type="line"/>
      <point x="372.0" y="500.0" type="line"/>
      <point x="372.0" y="475.0" type="line"/>
      <point x="105.0" y="475.0" type="line"/>
      <point x="105.0" y="0.0" type="line"/>
      <point x="80.0" y="0.0" type="line"/>
      <point x="80.0" y="578.0" type="line" smooth="yes"/>
      <point x="80.0" y="724.0"/>
      <point x="187.0" y="838.0"/>
    </contour>
  </outline>
</glyph>
<glyph name="g" format="2">
  <advance width="520"/>
  <unicode hex="0067"/>
  <outline>
    <contour>
      <point x="65.0" y="-135.0" type="curve" smooth="yes"/>
      <point x="65.0" y="-243.0"/>
      <point x="152.0" y="-330.0"/>
      <point x="260.0" y="-330.0" type="curve" smooth="yes"/>
      <point x="368.0" y="-330.0"/>
      <point x="455.0" y="-243.0"/>
      <point x="455.0" y="-135.0" type="curve" smooth="yes"/>
      <point x="455.0" y="-27.0"/>
      <point x="368.0" y="60.0"/>
      <point x="260.0" y="60.0" type="curve" smooth="yes"/>
      <point x="152.0" y="60.0"/>
      <point x="65.0" y="-27.0"/>
    </contour>
    <contour>
      <point x="40.0" y="-135.0" type="curve" smooth="yes"/>
      <point x="40.0" y="-14.0"/>
      <point x="139.0" y="85.0"/>
      <point x="260.0" y="85.0" type="curve" smooth="yes"/>
      <point x="381.0" y="85.0"/>
      <point x="480.0" y="-14.0"/>
      <point x="480.0" y="-135.0" type="curve" smooth="yes"/>
      <point x="480.0" y="-256.0"/>
      <point x="381.0" y="-355.0"/>
      <point x="260.0" y="-355.0" type="curve" smooth="yes"/>
      <point x="139.0" y="-355.0"/>
      <point x="40.0" y="-256.0"/>
    </contour>
    <contour>
      <point x="450.328125" y="390.0" type="line"/>
      <point x="469.182617188" y="357.591796875"/>
      <point x="480.0" y="319.998046875"/>
      <point x="480.0" y="280.0" type="curve" smooth="yes"/>
      <point x="480.0" y="159.0"/>
      <point x="381.0" y="60.0"/>
      <point x="260.0" y="60.0" type="curve" smooth="yes"/>
      <point x="139.0" y="60.0"/>
      <point x="40.0" y="159.0"/>
      <point x="40.0" y="280.0" type="curve" smooth="yes"/>
      <point x="40.0" y="401.0"/>
      <point x="139.0" y="500.0"/>
      <point x="260.0" y="500.0" type="curve" smooth="yes"/>
      <point x="480.0" y="500.0" type="line"/>
      <point x="480.0" y="475.0" type="line"/>
      <point x="260.0" y="475.0" type="line" smooth="yes"/>
      <point x="152.0" y="475.0"/>
      <point x="65.0" y="388.0"/>
      <point x="65.0" y="280.0" type="curve" smooth="yes"/>
      <point x="65.0" y="172.0"/>
      <point x="152.0" y="85.0"/>
      <point x="260.0" y="85.0" type="curve" smooth="yes"/>
      <point x="368.0" y="85.0"/>
      <point x="455.0" y="172.0"/>
      <point x="455.0" y="280.0" type="curve" smooth="yes"/>
      <point x="455.0" y="320.865234375"/>
      <point x="442.543945312" y="358.723632812"/>
      <point x="421.208007812" y="390.0" type="curve"/>
    </contour>
  </outline>
</glyph>
<glyph name="uni0067" format="2">
  <advance width="557"/>
  <unicode hex="0067"/>
  <outline>
    <contour>
      <point x="80.0" y="-122.0" type="curve" smooth="yes"/>
      <point x="80.0" y="-227.0"/>
      <point x="166.0" y="-313.0"/>
      <point x="271.0" y="-313.0" type="curve" smooth="yes"/>
      <point x="376.0" y="-313.0"/>
      <point x="462.0" y="-227.0"/>
      <point x="462.0" y="-122.0" type="curve" smooth="yes"/>
      <point x="462.0" y="-17.0"/>
      <point x="376.0" y="69.0"/>
      <point x="271.0" y="69.0" type="curve" smooth="yes"/>
      <point x="166.0" y="69.0"/>
      <point x="80.0" y="-17.0"/>
    </contour>
    <contour>
      <point x="55.0" y="-122.0" type="curve" smooth="yes"/>
      <point x="55.0" y="-1.0"/>
      <point x="152.0" y="89.0"/>
      <point x="271.0" y="89.0" type="curve" smooth="yes"/>
      <point x="390.0" y="89.0"/>
      <point x="487.0" y="-1.0"/>
      <point x="487.0" y="-122.0" type="curve" smooth="yes"/>
      <point x="487.0" y="-241.0"/>
      <point x="390.0" y="-338.0"/>
      <point x="271.0" y="-338.0" type="curve" smooth="yes"/>
      <point x="152.0" y="-338.0"/>
      <point x="55.0" y="-241.0"/>
    </contour>
    <contour>
      <point x="271.0" y="475.0" type="line" smooth="yes"/>
      <point x="164.0" y="475.0"/>
      <point x="80.0" y="389.0"/>
      <point x="80.0" y="284.0" type="curve" smooth="yes"/>
      <point x="80.0" y="179.0"/>
      <point x="166.0" y="93.0"/>
      <point x="271.0" y="93.0" type="curve" smooth="yes"/>
      <point x="376.0" y="93.0"/>
      <point x="462.0" y="179.0"/>
      <point x="462.0" y="284.0" type="curve" smooth="yes"/>
      <point x="462.0" y="333.0"/>
      <point x="443.0" y="377.0"/>
      <point x="413.0" y="411.0" type="curve"/>
      <point x="446.0" y="411.0" type="line"/>
      <point x="472.0" y="375.0"/>
      <point x="487.0" y="331.0"/>
      <point x="487.0" y="284.0" type="curve" smooth="yes"/>
      <point x="487.0" y="163.0"/>
      <point x="390.0" y="73.0"/>
      <point x="271.0" y="73.0" type="curve" smooth="yes"/>
      <point x="152.0" y="73.0"/>
      <point x="55.0" y="163.0"/>
      <point x="55.0" y="284.0" type="curve" smooth="yes"/>
      <point x="55.0" y="403.0"/>
      <point x="152.0" y="500.0"/>
      <point x="271.0" y="500.0" type="curve" smooth="yes"/>
      <point x="487.0" y="500.0" type="line"/>
      <point x="487.0" y="475.0" type="line"/>
    </contour>
  </outline>
</glyph>
<glyph name="h" format="2">
  <advance width="600"/>
  <unicode hex="0068"/>
  <outline>
    <contour>
      <point x="65.0" y="828.0" type="line"/>
      <point x="90.0" y="828.0" type="line"/>
      <point x="90.0" y="0.0" type="line"/>
      <point x="65.0" y="0.0" type="line"/>
    </contour>
    <contour>
      <point x="73.0" y="268.0" type="line" smooth="yes"/>
      <point x="73.0" y="415.0"/>
      <point x="170.0" y="510.0"/>
      <point x="306.0" y="510.0" type="curve" smooth="yes"/>
      <point x="422.0" y="510.0"/>
      <point x="535.0" y="415.0"/>
      <point x="535.0" y="268.0" type="curve" smooth="yes"/>
      <point x="535.0" y="0.0" type="line"/>
      <point x="510.0" y="0.0" type="line"/>
      <point x="510.0" y="267.0" type="line" smooth="yes"/>
      <point x="510.0" y="400.0"/>
      <point x="412.0" y="485.0"/>
      <point x="300.0" y="485.0" type="curve" smooth="yes"/>
      <point x="194.0" y="485.0"/>
      <point x="90.0" y="404.0"/>
      <point x="90.0" y="267.0" type="curve" smooth="yes"/>
      <point x="90.0" y="230.0" type="line"/>
      <point x="73.0" y="230.0" type="line"/>
    </contour>
  </outline>
</glyph>
<glyph name="i" format="2">
  <advance width="185"/>
  <unicode hex="0069"/>
  <outline>
    <contour>
      <point x="80.0" y="500.0" type="line"/>
      <point x="105.0" y="500.0" type="line"/>
      <point x="105.0" y="0.0" type="line"/>
      <point x="80.0" y="0.0" type="line"/>
    </contour>
  </outline>
</glyph>
<glyph name="j" format="2">
  <advance width="406"/>
  <unicode hex="006A"/>
  <outline>
    <contour>
      <point x="299.0" y="679.0" type="curve" smooth="yes"/>
      <point x="299.0" y="693.0"/>
      <point x="310.0" y="704.0"/>
      <point x="324.0" y="704.0" type="curve" smooth="yes"/>
      <point x="338.0" y="704.0"/>
      <point x="349.0" y="693.0"/>
      <point x="349.0" y="679.0" type="curve" smooth="yes"/>
      <point x="349.0" y="665.0"/>
      <point x="338.0" y="654.0"/>
      <point x="324.0" y="654.0" type="curve" smooth="yes"/>
      <point x="310.0" y="654.0"/>
      <point x="299.0" y="665.0"/>
    </contour>
    <contour>
      <point x="312.0" y="500.0" type="line"/>
      <point x="337.0" y="500.0" type="line"/>
      <point x="337.0" y="-78.0" type="line" smooth="yes"/>
      <point x="337.0" y="-224.0"/>
      <point x="230.0" y="-338.0"/>
      <point x="81.0" y="-338.0" type="curve" smooth="yes"/>
      <point x="65.0" y="-338.0"/>
      <point x="40.0" y="-336.0"/>
      <point x="20.0" y="-331.0" type="curve"/>
      <point x="20.0" y="-305.0" type="line"/>
      <point x="48.0" y="-312.0"/>
      <point x="67.0" y="-313.0"/>
      <point x="81.0" y="-313.0" type="curve" smooth="yes"/>
      <point x="214.0" y="-313.0"/>
      <point x="312.0" y="-210.0"/>
      <point x="312.0" y="-77.0" type="curve" smooth="yes"/>
    </contour>
  </outline>
</glyph>
<glyph name="k" format="2">
  <advance width="495"/>
  <unicode hex="006B"/>
  <outline>
    <contour>
      <point x="185.0" y="247.0" type="curve" smooth="yes"/>
      <point x="81.0" y="247.0" type="line"/>
      <point x="81.0" y="267.0" type="line"/>
      <point x="185.0" y="267.0" type="line" smooth="yes"/>
      <point x="291.0" y="267.0"/>
      <point x="405.0" y="348.0"/>
      <point x="405.0" y="485.0" type="curve" smooth="yes"/>
      <point x="405.0" y="500.0" type="line"/>
      <point x="430.0" y="500.0" type="line"/>
      <point x="430.0" y="484.0" type="line" smooth="yes"/>
      <point x="430.0" y="338.0"/>
      <point x="309.0" y="247.0"/>
    </contour>
    <contour>
      <point x="185.0" y="262.0" type="line" smooth="yes"/>
      <point x="309.0" y="262.0"/>
      <point x="430.0" y="171.0"/>
      <point x="430.0" y="25.0" type="curve" smooth="yes"/>
      <point x="430.0" y="-1.0" type="line"/>
      <point x="405.0" y="-1.0" type="line"/>
      <point x="405.0" y="24.0" type="line" smooth="yes"/>
      <point x="405.0" y="161.0"/>
      <point x="291.0" y="242.0"/>
      <point x="185.0" y="242.0" type="curve" smooth="yes"/>
      <point x="81.0" y="242.0" type="line"/>
      <point x="81.0" y="262.0" type="line"/>
    </contour>
    <contour>
      <point x="70.0" y="828.0" type="line"/>
      <point x="95.0" y="828.0" type="line"/>
      <point x="95.0" y="0.0" type="line"/>
      <point x="70.0" y="0.0" type="line"/>
    </contour>
  </outline>
</glyph>
<glyph name="m" format="2">
  <advance width="925"/>
  <unicode hex="006D"/>
  <outline>
    <contour>
      <point x="455.0" y="268.0" type="line" smooth="yes"/>
      <point x="455.0" y="415.0"/>
      <point x="533.0" y="510.0"/>
      <point x="657.0" y="510.0" type="curve" smooth="yes"/>
      <point x="779.0" y="510.0"/>
      <point x="860.0" y="412.0"/>
      <point x="860.0" y="268.0" type="curve" smooth="yes"/>
      <point x="860.0" y="0.0" type="line"/>
      <point x="835.0" y="0.0" type="line"/>
      <point x="835.0" y="267.0" type="line" smooth="yes"/>
      <point x="835.0" y="404.0"/>
      <point x="761.0" y="485.0"/>
      <point x="655.0" y="485.0" type="curve" smooth="yes"/>
      <point x="549.0" y="485.0"/>
      <point x="475.0" y="404.0"/>
      <point x="475.0" y="267.0" type="curve" smooth="yes"/>
      <point x="475.0" y="0.0" type="line"/>
      <point x="455.0" y="0.0" type="line"/>
    </contour>
    <contour>
      <point x="65.0" y="268.0" type="line" smooth="yes"/>
      <point x="65.0" y="414.0"/>
      <point x="146.0" y="510.0"/>
      <point x="268.0" y="510.0" type="curve" smooth="yes"/>
      <point x="392.0" y="510.0"/>
      <point x="470.0" y="414.0"/>
      <point x="470.0" y="268.0" type="curve" smooth="yes"/>
      <point x="470.0" y="0.0" type="line"/>
      <point x="450.0" y="0.0" type="line"/>
      <point x="450.0" y="267.0" type="line" smooth="yes"/>
      <point x="450.0" y="404.0"/>
      <point x="376.0" y="485.0"/>
      <point x="270.0" y="485.0" type="curve" smooth="yes"/>
      <point x="164.0" y="485.0"/>
      <point x="90.0" y="404.0"/>
      <point x="90.0" y="267.0" type="curve" smooth="yes"/>
      <point x="90.0" y="0.0" type="line"/>
      <point x="65.0" y="0.0" type="line"/>
    </contour>
  </outline>
</glyph>
<glyph name="uni006D" format="2">
  <advance width="935"/>
  <unicode hex="006D"/>
  <outline>
    <contour>
      <point x="460.0" y="268.0" type="line" smooth="yes"/>
      <point x="460.0" y="415.0"/>
      <point x="538.0" y="510.0"/>
      <point x="662.0" y="510.0" type="curve" smooth="yes"/>
      <point x="784.0" y="510.0"/>
      <point x="865.0" y="412.0"/>
      <point x="865.0" y="268.0" type="curve" smooth="yes"/>
      <point x="865.0" y="0.0" type="line"/>
      <point x="840.0" y="0.0" type="line"/>
      <point x="840.0" y="267.0" type="line" smooth="yes"/>
      <point x="840.0" y="404.0"/>
      <point x="766.0" y="485.0"/>
      <point x="660.0" y="485.0" type="curve" smooth="yes"/>
      <point x="554.0" y="485.0"/>
      <point x="480.0" y="404.0"/>
      <point x="480.0" y="267.0" type="curve" smooth="yes"/>
      <point x="480.0" y="0.0" type="line"/>
      <point x="460.0" y="0.0" type="line"/>
    </contour>
    <contour>
      <point x="70.0" y="268.0" type="line" smooth="yes"/>
      <point x="70.0" y="414.0"/>
      <point x="151.0" y="510.0"/>
      <point x="273.0" y="510.0" type="curve" smooth="yes"/>
      <point x="397.0" y="510.0"/>
      <point x="475.0" y="414.0"/>
      <point x="475.0" y="268.0" type="curve" smooth="yes"/>
      <point x="475.0" y="0.0" type="line"/>
      <point x="455.0" y="0.0" type="line"/>
      <point x="455.0" y="267.0" type="line" smooth="yes"/>
      <point x="455.0" y="404.0"/>
      <point x="381.0" y="485.0"/>
      <point x="275.0" y="485.0" type="curve" smooth="yes"/>
      <point x="169.0" y="485.0"/>
      <point x="95.0" y="404.0"/>
      <point x="95.0" y="267.0" type="curve" smooth="yes"/>
      <point x="95.0" y="0.0" type="line"/>
      <point x="70.0" y="0.0" type="line"/>
    </contour>
  </outline>
</glyph>
<glyph name="n" format="2">
  <advance width="650"/>
  <unicode hex="006E"/>
  <outline>
    <contour>
      <point x="80.0" y="238.0" type="line" smooth="yes"/>
      <point x="80.0" y="419.0"/>
      <point x="201.0" y="510.0"/>
      <point x="325.0" y="510.0" type="curve" smooth="yes"/>
      <point x="449.0" y="510.0"/>
      <point x="570.0" y="419.0"/>
      <point x="570.0" y="238.0" type="curve" smooth="yes"/>
      <point x="570.0" y="0.0" type="line"/>
      <point x="545.0" y="0.0" type="line"/>
      <point x="545.0" y="237.0" type="line" smooth="yes"/>
      <point x="545.0" y="404.0"/>
      <point x="434.0" y="485.0"/>
      <point x="325.0" y="485.0" type="curve" smooth="yes"/>
      <point x="216.0" y="485.0"/>
      <point x="105.0" y="404.0"/>
      <point x="105.0" y="237.0" type="curve" smooth="yes"/>
      <point x="105.0" y="0.0" type="line"/>
      <point x="80.0" y="0.0" type="line"/>
    </contour>
  </outline>
</glyph>
<glyph name="uni006E" format="2">
  <advance width="610"/>
  <unicode hex="006E"/>
  <outline>
    <contour>
      <point x="70.0" y="268.0" type="line" smooth="yes"/>
      <point x="70.0" y="415.0"/>
      <point x="181.0" y="510.0"/>
      <point x="305.0" y="510.0" type="curve" smooth="yes"/>
      <point x="429.0" y="510.0"/>
      <point x="540.0" y="414.0"/>
      <point x="540.0" y="268.0" type="curve" smooth="yes"/>
      <point x="540.0" y="0.0" type="line"/>
      <point x="515.0" y="0.0" type="line"/>
      <point x="515.0" y="267.0" type="line" smooth="yes"/>
      <point x="515.0" y="404.0"/>
      <point x="411.0" y="485.0"/>
      <point x="305.0" y="485.0" type="curve" smooth="yes"/>
      <point x="199.0" y="485.0"/>
      <point x="95.0" y="404.0"/>
      <point x="95.0" y="267.0" type="curve" smooth="yes"/>
      <point x="95.0" y="0.0" type="line"/>
      <point x="70.0" y="0.0" type="line"/>
    </contour>
  </outline>
</glyph>
<glyph name="o" format="2">
  <advance width="590"/>
  <unicode hex="006F"/>
  <outline>
    <contour>
      <point x="65.0" y="250.0" type="curve" smooth="yes"/>
      <point x="65.0" y="121.0"/>
      <point x="161.0" y="15.0"/>
      <point x="295.0" y="15.0" type="curve" smooth="yes"/>
      <point x="429.0" y="15.0"/>
      <point x="525.0" y="121.0"/>
      <point x="525.0" y="250.0" type="curve" smooth="yes"/>
      <point x="525.0" y="379.0"/>
      <point x="429.0" y="485.0"/>
      <point x="295.0" y="485.0" type="curve" smooth="yes"/>
      <point x="161.0" y="485.0"/>
      <point x="65.0" y="379.0"/>
    </contour>
    <contour>
      <point x="40.0" y="250.0" type="curve" smooth="yes"/>
      <point x="40.0" y="395.0"/>
      <point x="146.0" y="510.0"/>
      <point x="295.0" y="510.0" type="curve" smooth="yes"/>
      <point x="444.0" y="510.0"/>
      <point x="550.0" y="395.0"/>
      <point x="550.0" y="250.0" type="curve" smooth="yes"/>
      <point x="550.0" y="105.0"/>
      <point x="444.0" y="-10.0"/>
      <point x="295.0" y="-10.0" type="curve" smooth="yes"/>
      <point x="146.0" y="-10.0"/>
      <point x="40.0" y="105.0"/>
    </contour>
  </outline>
</glyph>
<glyph name="uni006F" format="2">
  <advance width="608"/>
  <unicode hex="006F"/>
  <outline>
    <contour>
      <point x="74.0" y="250.0" type="curve" smooth="yes"/>
      <point x="74.0" y="121.0"/>
      <point x="170.0" y="15.0"/>
      <point x="304.0" y="15.0" type="curve" smooth="yes"/>
      <point x="438.0" y="15.0"/>
      <point x="534.0" y="121.0"/>
      <point x="534.0" y="250.0" type="curve" smooth="yes"/>
      <point x="534.0" y="379.0"/>
      <point x="438.0" y="485.0"/>
      <point x="304.0" y="485.0" type="curve" smooth="yes"/>
      <point x="170.0" y="485.0"/>
      <point x="74.0" y="379.0"/>
    </contour>
    <contour>
      <point x="49.0" y="250.0" type="curve" smooth="yes"/>
      <point x="49.0" y="395.0"/>
      <point x="155.0" y="510.0"/>
      <point x="304.0" y="510.0" type="curve" smooth="yes"/>
      <point x="453.0" y="510.0"/>
      <point x="559.0" y="395.0"/>
      <point x="559.0" y="250.0" type="curve" smooth="yes"/>
      <point x="559.0" y="105.0"/>
      <point x="453.0" y="-10.0"/>
      <point x="304.0" y="-10.0" type="curve" smooth="yes"/>
      <point x="155.0" y="-10.0"/>
      <point x="49.0" y="105.0"/>
    </contour>
  </outline>
</glyph>
<glyph name="uni0071" format="2">
  <advance width="619"/>
  <unicode hex="0071"/>
  <outline>
    <contour>
      <point x="304.0" y="485.0" type="curve" smooth="yes"/>
      <point x="170.0" y="485.0"/>
      <point x="74.0" y="379.0"/>
      <point x="74.0" y="250.0" type="curve" smooth="yes"/>
      <point x="74.0" y="121.0"/>
      <point x="170.0" y="15.0"/>
      <point x="304.0" y="15.0" type="curve" smooth="yes"/>
      <point x="366.077148438" y="15.0"/>
      <point x="420.0" y="37.7490234375"/>
      <point x="460.0" y="74.9951171875" type="curve"/>
      <point x="460.0" y="41.1787109375" type="line"/>
      <point x="417.8984375" y="8.955078125"/>
      <point x="364.493164062" y="-10.0"/>
      <point x="304.0" y="-10.0" type="curve" smooth="yes"/>
      <point x="155.0" y="-10.0"/>
      <point x="49.0" y="105.0"/>
      <point x="49.0" y="250.0" type="curve" smooth="yes"/>
      <point x="49.0" y="395.0"/>
      <point x="155.0" y="510.0"/>
      <point x="304.0" y="510.0" type="curve" smooth="yes"/>
      <point x="428.0" y="510.0"/>
      <point x="549.0" y="419.0"/>
      <point x="549.0" y="238.0" type="curve" smooth="yes"/>
      <point x="549.0" y="-328.0" type="line"/>
      <point x="524.0" y="-328.0" type="line"/>
      <point x="524.0" y="237.0" type="line" smooth="yes"/>
      <point x="524.0" y="404.0"/>
      <point x="413.0" y="485.0"/>
    </contour>
  </outline>
</glyph>
<glyph name="r" format="2">
  <advance width="417"/>
  <unicode hex="0072"/>
  <outline>
    <contour>
      <point x="336.0" y="510.0" type="curve" smooth="yes"/>
      <point x="352.0" y="510.0"/>
      <point x="377.0" y="508.0"/>
      <point x="397.0" y="503.0" type="curve"/>
      <point x="397.0" y="477.0" type="line"/>
      <point x="369.0" y="484.0"/>
      <point x="350.0" y="485.0"/>
      <point x="336.0" y="485.0" type="curve" smooth="yes"/>
      <point x="203.0" y="485.0"/>
      <point x="105.0" y="382.0"/>
      <point x="105.0" y="249.0" type="curve" smooth="yes"/>
      <point x="105.0" y="0.0" type="line"/>
      <point x="80.0" y="0.0" type="line"/>
      <point x="80.0" y="250.0" type="line" smooth="yes"/>
      <point x="80.0" y="396.0"/>
      <point x="187.0" y="510.0"/>
    </contour>
  </outline>
</glyph>
<glyph name="s" format="2">
  <advance width="529"/>
  <unicode hex="0073"/>
  <outline>
    <contour>
      <point x="252.0" y="250.0" type="curve" smooth="yes"/>
      <point x="252.0" y="396.0"/>
      <point x="309.0" y="510.0"/>
      <point x="438.0" y="510.0" type="curve" smooth="yes"/>
      <point x="454.0" y="510.0"/>
      <point x="479.0" y="508.0"/>
      <point x="499.0" y="503.0" type="curve"/>
      <point x="499.0" y="477.0" type="line"/>
      <point x="471.0" y="484.0"/>
      <point x="452.0" y="485.0"/>
      <point x="438.0" y="485.0" type="curve" smooth="yes"/>
      <point x="325.0" y="485.0"/>
      <point x="277.0" y="382.0"/>
      <point x="277.0" y="249.0" type="curve" smooth="yes"/>
      <point x="277.0" y="103.0"/>
      <point x="230.0" y="-11.0"/>
      <point x="91.0" y="-11.0" type="curve" smooth="yes"/>
      <point x="75.0" y="-11.0"/>
      <point x="50.0" y="-9.0"/>
      <point x="30.0" y="-4.0" type="curve"/>
      <point x="30.0" y="22.0" type="line"/>
      <point x="58.0" y="15.0"/>
      <point x="77.0" y="14.0"/>
      <point x="91.0" y="14.0" type="curve" smooth="yes"/>
      <point x="214.0" y="14.0"/>
      <point x="252.0" y="121.0"/>
    </contour>
  </outline>
</glyph>
<glyph name="uni0073" format="2">
  <advance width="579"/>
  <unicode hex="0073"/>
  <outline>
    <contour>
      <point x="277.0" y="250.0" type="curve" smooth="yes"/>
      <point x="277.0" y="396.0"/>
      <point x="334.0" y="510.0"/>
      <point x="463.0" y="510.0" type="curve" smooth="yes"/>
      <point x="479.0" y="510.0"/>
      <point x="504.0" y="508.0"/>
      <point x="524.0" y="503.0" type="curve"/>
      <point x="524.0" y="477.0" type="line"/>
      <point x="496.0" y="484.0"/>
      <point x="477.0" y="485.0"/>
      <point x="463.0" y="485.0" type="curve" smooth="yes"/>
      <point x="350.0" y="485.0"/>
      <point x="302.0" y="382.0"/>
      <point x="302.0" y="249.0" type="curve" smooth="yes"/>
      <point x="302.0" y="103.0"/>
      <point x="255.0" y="-11.0"/>
      <point x="116.0" y="-11.0" type="curve" smooth="yes"/>
      <point x="100.0" y="-11.0"/>
      <point x="75.0" y="-9.0"/>
      <point x="55.0" y="-4.0" type="curve"/>
      <point x="55.0" y="22.0" type="line"/>
      <point x="83.0" y="15.0"/>
      <point x="102.0" y="14.0"/>
      <point x="116.0" y="14.0" type="curve" smooth="yes"/>
      <point x="239.0" y="14.0"/>
      <point x="277.0" y="121.0"/>
    </contour>
  </outline>
</glyph>
<glyph name="t" format="2">
  <advance width="447"/>
  <unicode hex="0074"/>
  <outline>
    <contour>
      <point x="321.0" y="-10.0" type="curve" smooth="yes"/>
      <point x="172.0" y="-10.0"/>
      <point x="65.0" y="104.0"/>
      <point x="65.0" y="250.0" type="curve" smooth="yes"/>
      <point x="65.0" y="679.0" type="line"/>
      <point x="90.0" y="679.0" type="line"/>
      <point x="90.0" y="500.0" type="line"/>
      <point x="377.0" y="500.0" type="line"/>
      <point x="377.0" y="475.0" type="line"/>
      <point x="90.0" y="475.0" type="line"/>
      <point x="90.0" y="251.0" type="line" smooth="yes"/>
      <point x="90.0" y="118.0"/>
      <point x="188.0" y="15.0"/>
      <point x="321.0" y="15.0" type="curve" smooth="yes"/>
      <point x="335.0" y="15.0"/>
      <point x="354.0" y="16.0"/>
      <point x="382.0" y="23.0" type="curve"/>
      <point x="382.0" y="-3.0" type="line"/>
      <point x="362.0" y="-8.0"/>
      <point x="337.0" y="-10.0"/>
    </contour>
  </outline>
</glyph>
<glyph name="uni0076" format="2">
  <advance width="570"/>
  <unicode hex="0076"/>
  <outline>
    <contour>
      <point x="500.0" y="242.0" type="line" smooth="yes"/>
      <point x="500.0" y="95.0"/>
      <point x="389.0" y="0.0"/>
      <point x="265.0" y="0.0" type="curve" smooth="yes"/>
      <point x="70.0" y="0.0" type="line"/>
      <point x="70.0" y="500.0" type="line"/>
      <point x="95.0" y="500.0" type="line"/>
      <point x="95.0" y="25.0" type="line"/>
      <point x="265.0" y="25.0" type="line" smooth="yes"/>
      <point x="371.0" y="25.0"/>
      <point x="475.0" y="106.0"/>
      <point x="475.0" y="243.0" type="curve" smooth="yes"/>
      <point x="475.0" y="500.0" type="line"/>
      <point x="500.0" y="500.0" type="line"/>
    </contour>
  </outline>
</glyph>
<glyph name="v" format="2">
  <advance width="560"/>
  <unicode hex="0076"/>
  <outline>
    <contour>
      <point x="495.0" y="242.0" type="line" smooth="yes"/>
      <point x="495.0" y="95.0"/>
      <point x="384.0" y="0.0"/>
      <point x="260.0" y="0.0" type="curve" smooth="yes"/>
      <point x="65.0" y="0.0" type="line"/>
      <point x="65.0" y="500.0" type="line"/>
      <point x="90.0" y="500.0" type="line"/>
      <point x="90.0" y="25.0" type="line"/>
      <point x="260.0" y="25.0" type="line" smooth="yes"/>
      <point x="366.0" y="25.0"/>
      <point x="470.0" y="106.0"/>
      <point x="470.0" y="243.0" type="curve" smooth="yes"/>
      <point x="470.0" y="500.0" type="line"/>
      <point x="495.0" y="500.0" type="line"/>
    </contour>
  </outline>
</glyph>
<glyph name="w" format="2">
  <advance width="955"/>
  <unicode hex="0077"/>
  <outline>
    <contour>
      <point x="483.0" y="242.0" type="line" smooth="yes"/>
      <point x="483.0" y="95.0"/>
      <point x="389.0" y="0.0"/>
      <point x="265.0" y="0.0" type="curve" smooth="yes"/>
      <point x="80.0" y="0.0" type="line"/>
      <point x="80.0" y="500.0" type="line"/>
      <point x="105.0" y="500.0" type="line"/>
      <point x="105.0" y="25.0" type="line"/>
      <point x="265.0" y="25.0" type="line" smooth="yes"/>
      <point x="371.0" y="25.0"/>
      <point x="465.0" y="106.0"/>
      <point x="465.0" y="243.0" type="curve" smooth="yes"/>
      <point x="465.0" y="500.0" type="line"/>
      <point x="483.0" y="500.0" type="line"/>
    </contour>
    <contour>
      <point x="875.0" y="232.0" type="line" smooth="yes"/>
      <point x="875.0" y="86.0"/>
      <point x="794.0" y="-10.0"/>
      <point x="672.0" y="-10.0" type="curve" smooth="yes"/>
      <point x="548.0" y="-10.0"/>
      <point x="472.0" y="86.0"/>
      <point x="472.0" y="232.0" type="curve" smooth="yes"/>
      <point x="472.0" y="500.0" type="line"/>
      <point x="490.0" y="500.0" type="line"/>
      <point x="490.0" y="233.0" type="line" smooth="yes"/>
      <point x="490.0" y="96.0"/>
      <point x="564.0" y="15.0"/>
      <point x="670.0" y="15.0" type="curve" smooth="yes"/>
      <point x="776.0" y="15.0"/>
      <point x="850.0" y="96.0"/>
      <point x="850.0" y="233.0" type="curve" smooth="yes"/>
      <point x="850.0" y="500.0" type="line"/>
      <point x="875.0" y="500.0" type="line"/>
    </contour>
  </outline>
</glyph>
<glyph name="x" format="2">
  <advance width="579"/>
  <unicode hex="0078"/>
  <outline>
    <contour>
      <point x="78.0" y="479.0" type="curve" smooth="yes"/>
      <point x="62.0" y="479.0"/>
      <point x="53.0" y="478.0"/>
      <point x="40.0" y="475.0" type="curve"/>
      <point x="40.0" y="500.0" type="line"/>
      <point x="51.0" y="503.0"/>
      <point x="63.0" y="504.0"/>
      <point x="78.0" y="504.0" type="curve" smooth="yes"/>
      <point x="181.0" y="504.0"/>
      <point x="303.0" y="395.0"/>
      <point x="303.0" y="250.0" type="curve" smooth="yes"/>
      <point x="303.0" y="105.0"/>
      <point x="181.0" y="-4.0"/>
      <point x="78.0" y="-4.0" type="curve" smooth="yes"/>
      <point x="63.0" y="-4.0"/>
      <point x="51.0" y="-2.0"/>
      <point x="40.0" y="1.0" type="curve"/>
      <point x="40.0" y="26.0" type="line"/>
      <point x="53.0" y="23.0"/>
      <point x="62.0" y="21.0"/>
      <point x="78.0" y="21.0" type="curve" smooth="yes"/>
      <point x="166.0" y="21.0"/>
      <point x="278.0" y="121.0"/>
      <point x="278.0" y="250.0" type="curve" smooth="yes"/>
      <point x="278.0" y="379.0"/>
      <point x="166.0" y="479.0"/>
    </contour>
    <contour>
      <point x="503.0" y="21.0" type="curve" smooth="yes"/>
      <point x="519.0" y="21.0"/>
      <point x="528.0" y="22.0"/>
      <point x="541.0" y="25.0" type="curve"/>
      <point x="541.0" y="0.0" type="line"/>
      <point x="530.0" y="-3.0"/>
      <point x="518.0" y="-4.0"/>
      <point x="503.0" y="-4.0" type="curve" smooth="yes"/>
      <point x="390.0" y="-4.0"/>
      <point x="278.0" y="105.0"/>
      <point x="278.0" y="250.0" type="curve" smooth="yes"/>
      <point x="278.0" y="395.0"/>
      <point x="390.0" y="509.0"/>
      <point x="503.0" y="509.0" type="curve" smooth="yes"/>
      <point x="518.0" y="509.0"/>
      <point x="530.0" y="508.0"/>
      <point x="541.0" y="505.0" type="curve"/>
      <point x="541.0" y="480.0" type="line"/>
      <point x="528.0" y="483.0"/>
      <point x="519.0" y="484.0"/>
      <point x="503.0" y="484.0" type="curve" smooth="yes"/>
      <point x="405.0" y="484.0"/>
      <point x="303.0" y="379.0"/>
      <point x="303.0" y="250.0" type="curve" smooth="yes"/>
      <point x="303.0" y="121.0"/>
      <point x="405.0" y="21.0"/>
    </contour>
  </outline>
</glyph>
<glyph name="uni0079" format="2">
  <advance width="610"/>
  <unicode hex="0079"/>
  <outline>
    <contour>
      <point x="532.0" y="232.0" type="line" smooth="yes"/>
      <point x="532.0" y="85.0"/>
      <point x="435.0" y="-10.0"/>
      <point x="299.0" y="-10.0" type="curve" smooth="yes"/>
      <point x="183.0" y="-10.0"/>
      <point x="70.0" y="85.0"/>
      <point x="70.0" y="232.0" type="curve" smooth="yes"/>
      <point x="70.0" y="500.0" type="line"/>
      <point x="95.0" y="500.0" type="line"/>
      <point x="95.0" y="233.0" type="line" smooth="yes"/>
      <point x="95.0" y="100.0"/>
      <point x="193.0" y="15.0"/>
      <point x="305.0" y="15.0" type="curve" smooth="yes"/>
      <point x="411.0" y="15.0"/>
      <point x="515.0" y="96.0"/>
      <point x="515.0" y="233.0" type="curve" smooth="yes"/>
      <point x="515.0" y="270.0" type="line"/>
      <point x="532.0" y="270.0" type="line"/>
    </contour>
    <contour>
      <point x="143.0" y="-266.0" type="line"/>
      <point x="178.0" y="-293.0"/>
      <point x="227.0" y="-313.0"/>
      <point x="285.0" y="-313.0" type="curve" smooth="yes"/>
      <point x="419.0" y="-313.0"/>
      <point x="515.0" y="-207.0"/>
      <point x="515.0" y="-78.0" type="curve" smooth="yes"/>
      <point x="515.0" y="500.0" type="line"/>
      <point x="540.0" y="500.0" type="line"/>
      <point x="540.0" y="-78.0" type="line" smooth="yes"/>
      <point x="540.0" y="-223.0"/>
      <point x="434.0" y="-338.0"/>
      <point x="285.0" y="-338.0" type="curve" smooth="yes"/>
      <point x="228.0" y="-338.0"/>
      <point x="184.0" y="-323.0"/>
      <point x="143.0" y="-297.0" type="curve"/>
    </contour>
  </outline>
</glyph>
<glyph name="y" format="2">
  <advance width="600"/>
  <unicode hex="0079"/>
  <outline>
    <contour>
      <point x="527.0" y="232.0" type="line" smooth="yes"/>
      <point x="527.0" y="85.0"/>
      <point x="430.0" y="-10.0"/>
      <point x="294.0" y="-10.0" type="curve" smooth="yes"/>
      <point x="178.0" y="-10.0"/>
      <point x="65.0" y="85.0"/>
      <point x="65.0" y="232.0" type="curve" smooth="yes"/>
      <point x="65.0" y="500.0" type="line"/>
      <point x="90.0" y="500.0" type="line"/>
      <point x="90.0" y="233.0" type="line" smooth="yes"/>
      <point x="90.0" y="100.0"/>
      <point x="188.0" y="15.0"/>
      <point x="300.0" y="15.0" type="curve" smooth="yes"/>
      <point x="406.0" y="15.0"/>
      <point x="510.0" y="96.0"/>
      <point x="510.0" y="233.0" type="curve" smooth="yes"/>
      <point x="510.0" y="270.0" type="line"/>
      <point x="527.0" y="270.0" type="line"/>
    </contour>
    <contour>
      <point x="138.0" y="-266.0" type="line"/>
      <point x="173.0" y="-293.0"/>
      <point x="222.0" y="-313.0"/>
      <point x="280.0" y="-313.0" type="curve" smooth="yes"/>
      <point x="414.0" y="-313.0"/>
      <point x="510.0" y="-207.0"/>
      <point x="510.0" y="-78.0" type="curve" smooth="yes"/>
      <point x="510.0" y="500.0" type="line"/>
      <point x="535.0" y="500.0" type="line"/>
      <point x="535.0" y="-78.0" type="line" smooth="yes"/>
      <point x="535.0" y="-223.0"/>
      <point x="429.0" y="-338.0"/>
      <point x="280.0" y="-338.0" type="curve" smooth="yes"/>
      <point x="223.0" y="-338.0"/>
      <point x="179.0" y="-323.0"/>
      <point x="138.0" y="-297.0" type="curve"/>
    </contour>
  </outline>
</glyph>
<glyph name="uni007A" format="2">
  <advance width="430"/>
  <unicode hex="007A"/>
  <outline>
    <contour>
      <point x="72.0" y="490.0" type="line"/>
      <point x="93.0" y="501.0"/>
      <point x="123.0" y="510.0"/>
      <point x="160.0" y="510.0" type="curve" smooth="yes"/>
      <point x="279.0" y="510.0"/>
      <point x="375.0" y="410.0"/>
      <point x="375.0" y="291.0" type="curve" smooth="yes"/>
      <point x="375.0" y="170.0"/>
      <point x="278.0" y="80.0"/>
      <point x="159.0" y="80.0" type="curve" smooth="yes"/>
      <point x="79.0" y="80.0" type="line"/>
      <point x="79.0" y="98.0" type="line"/>
      <point x="129.0" y="98.0" type="line" smooth="yes"/>
      <point x="274.0" y="98.0"/>
      <point x="350.0" y="186.0"/>
      <point x="350.0" y="291.0" type="curve" smooth="yes"/>
      <point x="350.0" y="396.0"/>
      <point x="265.0" y="485.0"/>
      <point x="160.0" y="485.0" type="curve" smooth="yes"/>
      <point x="118.0" y="485.0"/>
      <point x="96.0" y="476.0"/>
      <point x="72.0" y="464.0" type="curve"/>
    </contour>
    <contour>
      <point x="70.0" y="-318.0" type="curve"/>
      <point x="70.0" y="-292.0" type="line"/>
      <point x="94.0" y="-304.0"/>
      <point x="116.0" y="-313.0"/>
      <point x="158.0" y="-313.0" type="curve" smooth="yes"/>
      <point x="263.0" y="-313.0"/>
      <point x="350.0" y="-225.0"/>
      <point x="350.0" y="-120.0" type="curve" smooth="yes"/>
      <point x="350.0" y="-15.0"/>
      <point x="274.0" y="73.0"/>
      <point x="129.0" y="73.0" type="curve" smooth="yes"/>
      <point x="79.0" y="73.0" type="line"/>
      <point x="79.0" y="91.0" type="line"/>
      <point x="159.0" y="91.0" type="line" smooth="yes"/>
      <point x="278.0" y="91.0"/>
      <point x="375.0" y="1.0"/>
      <point x="375.0" y="-120.0" type="curve" smooth="yes"/>
      <point x="375.0" y="-239.0"/>
      <point x="277.0" y="-338.0"/>
      <point x="158.0" y="-338.0" type="curve" smooth="yes"/>
      <point x="121.0" y="-338.0"/>
      <point x="91.0" y="-329.0"/>
    </contour>
  </outline>
</glyph>
<glyph name="z" format="2">
  <advance width="420"/>
  <unicode hex="007A"/>
  <outline>
    <contour>
      <point x="67.0" y="490.0" type="line"/>
      <point x="88.0" y="501.0"/>
      <point x="118.0" y="510.0"/>
      <point x="155.0" y="510.0" type="curve" smooth="yes"/>
      <point x="274.0" y="510.0"/>
      <point x="370.0" y="410.0"/>
      <point x="370.0" y="291.0" type="curve" smooth="yes"/>
      <point x="370.0" y="170.0"/>
      <point x="273.0" y="80.0"/>
      <point x="154.0" y="80.0" type="curve" smooth="yes"/>
      <point x="74.0" y="80.0" type="line"/>
      <point x="74.0" y="98.0" type="line"/>
      <point x="124.0" y="98.0" type="line" smooth="yes"/>
      <point x="269.0" y="98.0"/>
      <point x="345.0" y="186.0"/>
      <point x="345.0" y="291.0" type="curve" smooth="yes"/>
      <point x="345.0" y="396.0"/>
      <point x="260.0" y="485.0"/>
      <point x="155.0" y="485.0" type="curve" smooth="yes"/>
      <point x="113.0" y="485.0"/>
      <point x="91.0" y="476.0"/>
      <point x="67.0" y="464.0" type="curve"/>
    </contour>
    <contour>
      <point x="65.0" y="-318.0" type="curve"/>
      <point x="65.0" y="-292.0" type="line"/>
      <point x="89.0" y="-304.0"/>
      <point x="111.0" y="-313.0"/>
      <point x="153.0" y="-313.0" type="curve" smooth="yes"/>
      <point x="258.0" y="-313.0"/>
      <point x="345.0" y="-225.0"/>
      <point x="345.0" y="-120.0" type="curve" smooth="yes"/>
      <point x="345.0" y="-15.0"/>
      <point x="269.0" y="73.0"/>
      <point x="124.0" y="73.0" type="curve" smooth="yes"/>
      <point x="74.0" y="73.0" type="line"/>
      <point x="74.0" y="91.0" type="line"/>
      <point x="154.0" y="91.0" type="line" smooth="yes"/>
      <point x="273.0" y="91.0"/>
      <point x="370.0" y="1.0"/>
      <point x="370.0" y="-120.0" type="curve" smooth="yes"/>
      <point x="370.0" y="-239.0"/>
      <point x="272.0" y="-338.0"/>
      <point x="153.0" y="-338.0" type="curve" smooth="yes"/>
      <point x="116.0" y="-338.0"/>
      <point x="86.0" y="-329.0"/>
    </contour>
  </outline>
</glyph>
<glyph name="uni0261" format="2">
  <advance width="619"/>
  <unicode hex="0261"/>
  <outline>
    <contour>
      <point x="524.0" y="-58.0" type="curve" smooth="yes"/>
      <point x="524.0" y="237.0" type="line" smooth="yes"/>
      <point x="524.0" y="404.0"/>
      <point x="413.0" y="485.0"/>
      <point x="304.0" y="485.0" type="curve" smooth="yes"/>
      <point x="170.0" y="485.0"/>
      <point x="74.0" y="379.0"/>
      <point x="74.0" y="250.0" type="curve" smooth="yes"/>
      <point x="74.0" y="121.0"/>
      <point x="170.0" y="15.0"/>
      <point x="304.0" y="15.0" type="curve" smooth="yes"/>
      <point x="366.077148438" y="15.0"/>
      <point x="420.0" y="37.7490234375"/>
      <point x="460.0" y="74.9951171875" type="curve"/>
      <point x="460.0" y="41.1787109375" type="line"/>
      <point x="417.8984375" y="8.955078125"/>
      <point x="364.493164062" y="-10.0"/>
      <point x="304.0" y="-10.0" type="curve" smooth="yes"/>
      <point x="155.0" y="-10.0"/>
      <point x="49.0" y="105.0"/>
      <point x="49.0" y="250.0" type="curve" smooth="yes"/>
      <point x="49.0" y="395.0"/>
      <point x="155.0" y="510.0"/>
      <point x="304.0" y="510.0" type="curve" smooth="yes"/>
      <point x="428.0" y="510.0"/>
      <point x="549.0" y="419.0"/>
      <point x="549.0" y="238.0" type="curve" smooth="yes"/>
      <point x="549.0" y="-58.0" type="line" smooth="yes"/>
      <point x="549.0" y="-213.0"/>
      <point x="429.0" y="-338.0"/>
      <point x="269.0" y="-338.0" type="curve" smooth="yes"/>
      <point x="212.0" y="-338.0"/>
      <point x="163.0" y="-321.0"/>
      <point x="122.0" y="-296.0" type="curve"/>
      <point x="122.0" y="-264.0" type="line"/>
      <point x="157.0" y="-291.0"/>
      <point x="211.0" y="-313.0"/>
      <point x="269.0" y="-313.0" type="curve" smooth="yes"/>
      <point x="415.0" y="-313.0"/>
      <point x="524.0" y="-197.0"/>
    </contour>
  </outline>
</glyph>
<glyph name="pipe" format="2">
  <advance width="572"/>
  <unicode hex="E650"/>
  <outline>
    <contour>
      <point x="70.0" y="596.0" type="line" smooth="yes"/>
      <point x="70.0" y="715.0"/>
      <point x="167.0" y="813.0"/>
      <point x="286.0" y="813.0" type="curve" smooth="yes"/>
      <point x="405.0" y="813.0"/>
      <point x="502.0" y="715.0"/>
      <point x="502.0" y="596.0" type="curve" smooth="yes"/>
      <point x="502.0" y="0.0" type="line"/>
      <point x="477.0" y="0.0" type="line"/>
      <point x="477.0" y="595.0" type="line" smooth="yes"/>
      <point x="477.0" y="700.0"/>
      <point x="391.0" y="786.0"/>
      <point x="286.0" y="786.0" type="curve" smooth="yes"/>
      <point x="181.0" y="786.0"/>
      <point x="95.0" y="700.0"/>
      <point x="95.0" y="595.0" type="curve" smooth="yes"/>
      <point x="95.0" y="475.0" type="line"/>
      <point x="70.0" y="475.0" type="line"/>
    </contour>
  </outline>
</glyph>
<glyph name="uniE650" format="2">
  <advance width="610"/>
  <unicode hex="E650"/>
  <outline>
    <contour>
      <point x="70.0" y="596.0" type="line" smooth="yes"/>
      <point x="70.0" y="743.0"/>
      <point x="181.0" y="838.0"/>
      <point x="305.0" y="838.0" type="curve" smooth="yes"/>
      <point x="429.0" y="838.0"/>
      <point x="540.0" y="742.0"/>
      <point x="540.0" y="596.0" type="curve" smooth="yes"/>
      <point x="540.0" y="0.0" type="line"/>
      <point x="515.0" y="0.0" type="line"/>
      <point x="515.0" y="595.0" type="line" smooth="yes"/>
      <point x="515.0" y="732.0"/>
      <point x="411.0" y="813.0"/>
      <point x="305.0" y="813.0" type="curve" smooth="yes"/>
      <point x="199.0" y="813.0"/>
      <point x="95.0" y="732.0"/>
      <point x="95.0" y="595.0" type="curve" smooth="yes"/>
      <point x="95.0" y="475.0" type="line"/>
      <point x="70.0" y="475.0" type="line"/>
    </contour>
  </outline>
</glyph>
<glyph name="uniE651" format="2">
  <advance width="551"/>
  <unicode hex="E651"/>
  <outline>
    <contour>
      <point x="265.0" y="-313.0" type="curve" smooth="yes"/>
      <point x="370.0" y="-313.0"/>
      <point x="456.0" y="-227.0"/>
      <point x="456.0" y="-122.0" type="curve" smooth="yes"/>
      <point x="456.0" y="500.0" type="line"/>
      <point x="481.0" y="500.0" type="line"/>
      <point x="481.0" y="-122.0" type="line" smooth="yes"/>
      <point x="481.0" y="-241.0"/>
      <point x="384.0" y="-338.0"/>
      <point x="265.0" y="-338.0" type="curve" smooth="yes"/>
      <point x="146.0" y="-338.0"/>
      <point x="49.0" y="-241.0"/>
      <point x="49.0" y="-122.0" type="curve" smooth="yes"/>
      <point x="49.0" y="-3.0"/>
      <point x="146.0" y="94.0"/>
      <point x="265.0" y="94.0" type="curve" smooth="yes"/>
      <point x="312.0" y="94.0"/>
      <point x="356.0" y="79.0"/>
      <point x="392.0" y="53.0" type="curve"/>
      <point x="392.0" y="20.0" type="line"/>
      <point x="358.0" y="50.0"/>
      <point x="314.0" y="69.0"/>
      <point x="265.0" y="69.0" type="curve" smooth="yes"/>
      <point x="160.0" y="69.0"/>
      <point x="74.0" y="-17.0"/>
      <point x="74.0" y="-122.0" type="curve" smooth="yes"/>
      <point x="74.0" y="-227.0"/>
      <point x="160.0" y="-313.0"/>
    </contour>
  </outline>
</glyph>
<glyph name="uniE653" format="2">
  <advance width="438"/>
  <unicode hex="E653"/>
  <outline>
    <contour>
      <point x="70.0" y="500.0" type="line"/>
      <point x="95.0" y="500.0" type="line"/>
      <point x="95.0" y="-328.0" type="line"/>
      <point x="70.0" y="-328.0" type="line"/>
    </contour>
    <contour>
      <point x="332.0" y="25.0" type="curve" smooth="yes"/>
      <point x="348.0" y="25.0"/>
      <point x="367.0" y="23.0"/>
      <point x="387.0" y="18.0" type="curve"/>
      <point x="387.0" y="-8.0" type="line"/>
      <point x="359.0" y="-1.0"/>
      <point x="340.0" y="0.0"/>
      <point x="326.0" y="0.0" type="curve" smooth="yes"/>
      <point x="193.0" y="0.0"/>
      <point x="95.0" y="-95.0"/>
      <point x="95.0" y="-228.0" type="curve" smooth="yes"/>
      <point x="95.0" y="-258.0" type="line"/>
      <point x="78.0" y="-258.0" type="line"/>
      <point x="78.0" y="-227.0" type="line" smooth="yes"/>
      <point x="78.0" y="-81.0"/>
      <point x="183.0" y="25.0"/>
    </contour>
  </outline>
</glyph>
<glyph name="uniE654" format="2">
  <advance width="436"/>
  <unicode hex="E654"/>
  <outline>
    <contour>
      <point x="110.0" y="838.0" type="curve" smooth="yes"/>
      <point x="259.0" y="838.0"/>
      <point x="366.0" y="724.0"/>
      <point x="366.0" y="578.0" type="curve" smooth="yes"/>
      <point x="366.0" y="493.0" type="line"/>
      <point x="341.0" y="493.0" type="line"/>
      <point x="341.0" y="577.0" type="line" smooth="yes"/>
      <point x="341.0" y="710.0"/>
      <point x="243.0" y="813.0"/>
      <point x="110.0" y="813.0" type="curve" smooth="yes"/>
      <point x="96.0" y="813.0"/>
      <point x="77.0" y="812.0"/>
      <point x="49.0" y="805.0" type="curve"/>
      <point x="49.0" y="831.0" type="line"/>
      <point x="69.0" y="836.0"/>
      <point x="94.0" y="838.0"/>
    </contour>
    <contour>
      <point x="305.0" y="15.0" type="curve" smooth="yes"/>
      <point x="319.0" y="15.0"/>
      <point x="338.0" y="16.0"/>
      <point x="366.0" y="23.0" type="curve"/>
      <point x="366.0" y="-3.0" type="line"/>
      <point x="346.0" y="-8.0"/>
      <point x="321.0" y="-10.0"/>
      <point x="305.0" y="-10.0" type="curve" smooth="yes"/>
      <point x="156.0" y="-10.0"/>
      <point x="49.0" y="105.0"/>
      <point x="49.0" y="250.0" type="curve" smooth="yes"/>
      <point x="49.0" y="395.0"/>
      <point x="156.0" y="510.0"/>
      <point x="305.0" y="510.0" type="curve" smooth="yes"/>
      <point x="321.0" y="510.0"/>
      <point x="346.0" y="508.0"/>
      <point x="366.0" y="503.0" type="curve"/>
      <point x="366.0" y="477.0" type="line"/>
      <point x="338.0" y="484.0"/>
      <point x="319.0" y="485.0"/>
      <point x="305.0" y="485.0" type="curve" smooth="yes"/>
      <point x="171.0" y="485.0"/>
      <point x="74.0" y="379.0"/>
      <point x="74.0" y="250.0" type="curve" smooth="yes"/>
      <point x="74.0" y="121.0"/>
      <point x="171.0" y="15.0"/>
    </contour>
  </outline>
</glyph>
<glyph name="gig" format="2">
  <advance width="536"/>
  <unicode hex="E655"/>
  <outline>
    <contour>
      <point x="271.0" y="73.0" type="curve" smooth="yes"/>
      <point x="152.0" y="85.0"/>
      <point x="55.0" y="170.0"/>
      <point x="55.0" y="292.0" type="curve" smooth="yes"/>
      <point x="55.0" y="413.0"/>
      <point x="151.0" y="510.0"/>
      <point x="270.0" y="510.0" type="curve" smooth="yes"/>
      <point x="361.0" y="510.0"/>
      <point x="428.0" y="456.0"/>
      <point x="448.0" y="427.0" type="curve"/>
      <point x="448.0" y="390.0" type="line"/>
      <point x="425.0" y="428.0"/>
      <point x="359.0" y="485.0"/>
      <point x="270.0" y="485.0" type="curve" smooth="yes"/>
      <point x="165.0" y="485.0"/>
      <point x="80.0" y="397.0"/>
      <point x="80.0" y="292.0" type="curve" smooth="yes"/>
      <point x="80.0" y="187.0"/>
      <point x="165.478224814" y="108.731027985"/>
      <point x="271.0" y="98.0" type="curve" smooth="yes"/>
      <point x="389.0" y="86.0"/>
      <point x="487.0" y="-1.0"/>
      <point x="487.0" y="-120.0" type="curve" smooth="yes"/>
      <point x="487.0" y="-241.0"/>
      <point x="390.0" y="-338.0"/>
      <point x="271.0" y="-338.0" type="curve" smooth="yes"/>
      <point x="152.0" y="-338.0"/>
      <point x="55.0" y="-241.0"/>
      <point x="55.0" y="-120.0" type="curve" smooth="yes"/>
      <point x="55.0" y="-73.0"/>
      <point x="71.0" y="-27.0"/>
      <point x="100.0" y="9.0" type="curve"/>
      <point x="132.0" y="9.0" type="line"/>
      <point x="101.0" y="-25.0"/>
      <point x="80.0" y="-71.0"/>
      <point x="80.0" y="-120.0" type="curve" smooth="yes"/>
      <point x="80.0" y="-225.0"/>
      <point x="166.0" y="-313.0"/>
      <point x="271.0" y="-313.0" type="curve" smooth="yes"/>
      <point x="376.0" y="-313.0"/>
      <point x="462.0" y="-225.0"/>
      <point x="462.0" y="-120.0" type="curve" smooth="yes"/>
      <point x="462.0" y="-15.0"/>
      <point x="377.515862063" y="62.2589046659"/>
    </contour>
  </outline>
</glyph>
<glyph name="thoth" format="2">
  <advance width="457"/>
  <unicode hex="E656"/>
  <outline>
    <contour>
      <point x="362.0" y="251.0" type="curve" smooth="yes"/>
      <point x="362.0" y="577.0" type="line" smooth="yes"/>
      <point x="362.0" y="710.0"/>
      <point x="264.0" y="813.0"/>
      <point x="131.0" y="813.0" type="curve" smooth="yes"/>
      <point x="117.0" y="813.0"/>
      <point x="98.0" y="812.0"/>
      <point x="70.0" y="805.0" type="curve"/>
      <point x="70.0" y="831.0" type="line"/>
      <point x="90.0" y="836.0"/>
      <point x="115.0" y="838.0"/>
      <point x="131.0" y="838.0" type="curve" smooth="yes"/>
      <point x="280.0" y="838.0"/>
      <point x="387.0" y="724.0"/>
      <point x="387.0" y="578.0" type="curve" smooth="yes"/>
      <point x="387.0" y="250.0" type="line" smooth="yes"/>
      <point x="387.0" y="104.0"/>
      <point x="280.0" y="-10.0"/>
      <point x="131.0" y="-10.0" type="curve" smooth="yes"/>
      <point x="115.0" y="-10.0"/>
      <point x="90.0" y="-8.0"/>
      <point x="70.0" y="-3.0" type="curve"/>
      <point x="70.0" y="23.0" type="line"/>
      <point x="98.0" y="16.0"/>
      <point x="117.0" y="15.0"/>
      <point x="131.0" y="15.0" type="curve" smooth="yes"/>
      <point x="264.0" y="15.0"/>
      <point x="362.0" y="118.0"/>
    </contour>
  </outline>
</glyph>
<glyph name="sis" format="2">
  <advance width="579"/>
  <unicode hex="E65A"/>
  <outline>
    <contour>
      <point x="277.0" y="251.0" type="curve" smooth="yes"/>
      <point x="277.0" y="578.0" type="line" smooth="yes"/>
      <point x="277.0" y="724.0"/>
      <point x="334.0" y="838.0"/>
      <point x="463.0" y="838.0" type="curve" smooth="yes"/>
      <point x="479.0" y="838.0"/>
      <point x="504.0" y="836.0"/>
      <point x="524.0" y="831.0" type="curve"/>
      <point x="524.0" y="805.0" type="line"/>
      <point x="496.0" y="812.0"/>
      <point x="477.0" y="813.0"/>
      <point x="463.0" y="813.0" type="curve" smooth="yes"/>
      <point x="350.0" y="813.0"/>
      <point x="302.0" y="710.0"/>
      <point x="302.0" y="577.0" type="curve" smooth="yes"/>
      <point x="302.0" y="250.0" type="line" smooth="yes"/>
      <point x="302.0" y="104.0"/>
      <point x="255.0" y="-10.0"/>
      <point x="116.0" y="-10.0" type="curve" smooth="yes"/>
      <point x="100.0" y="-10.0"/>
      <point x="75.0" y="-8.0"/>
      <point x="55.0" y="-3.0" type="curve"/>
      <point x="55.0" y="23.0" type="line"/>
      <point x="83.0" y="16.0"/>
      <point x="102.0" y="15.0"/>
      <point x="116.0" y="15.0" type="curve" smooth="yes"/>
      <point x="239.0" y="15.0"/>
      <point x="277.0" y="140.0"/>
    </contour>
  </outline>
</glyph>
<glyph name="uniE65A" format="2">
  <advance width="497"/>
  <unicode hex="E65A"/>
  <outline>
    <contour>
      <point x="236.0" y="251.0" type="curve" smooth="yes"/>
      <point x="236.0" y="578.0" type="line" smooth="yes"/>
      <point x="236.0" y="724.0"/>
      <point x="293.0" y="838.0"/>
      <point x="422.0" y="838.0" type="curve" smooth="yes"/>
      <point x="438.0" y="838.0"/>
      <point x="463.0" y="836.0"/>
      <point x="483.0" y="831.0" type="curve"/>
      <point x="483.0" y="805.0" type="line"/>
      <point x="455.0" y="812.0"/>
      <point x="436.0" y="813.0"/>
      <point x="422.0" y="813.0" type="curve" smooth="yes"/>
      <point x="309.0" y="813.0"/>
      <point x="261.0" y="710.0"/>
      <point x="261.0" y="577.0" type="curve" smooth="yes"/>
      <point x="261.0" y="250.0" type="line" smooth="yes"/>
      <point x="261.0" y="104.0"/>
      <point x="214.0" y="-10.0"/>
      <point x="75.0" y="-10.0" type="curve" smooth="yes"/>
      <point x="59.0" y="-10.0"/>
      <point x="34.0" y="-8.0"/>
      <point x="14.0" y="-3.0" type="curve"/>
      <point x="14.0" y="23.0" type="line"/>
      <point x="42.0" y="16.0"/>
      <point x="61.0" y="15.0"/>
      <point x="75.0" y="15.0" type="curve" smooth="yes"/>
      <point x="198.0" y="15.0"/>
      <point x="236.0" y="140.0"/>
    </contour>
  </outline>
</glyph>
<glyph name="uniE65C" format="2">
  <advance width="401"/>
  <unicode hex="E65C"/>
  <outline>
    <contour>
      <point x="95.0" y="828.0" type="line"/>
      <point x="95.0" y="251.0" type="line" smooth="yes"/>
      <point x="95.0" y="118.0"/>
      <point x="193.0" y="15.0"/>
      <point x="326.0" y="15.0" type="curve" smooth="yes"/>
      <point x="340.0" y="15.0"/>
      <point x="359.0" y="16.0"/>
      <point x="387.0" y="23.0" type="curve"/>
      <point x="387.0" y="-3.0" type="line"/>
      <point x="367.0" y="-8.0"/>
      <point x="342.0" y="-10.0"/>
      <point x="326.0" y="-10.0" type="curve" smooth="yes"/>
      <point x="177.0" y="-10.0"/>
      <point x="70.0" y="104.0"/>
      <point x="70.0" y="250.0" type="curve" smooth="yes"/>
      <point x="70.0" y="828.0" type="line"/>
    </contour>
  </outline>
</glyph>
<glyph name="zhivago" format="2">
  <advance width="552"/>
  <unicode hex="E65D"/>
  <outline>
    <contour>
      <point x="457.0" y="250.0" type="line" smooth="yes"/>
      <point x="457.0" y="379.0"/>
      <point x="361.0" y="485.0"/>
      <point x="227.0" y="485.0" type="curve" smooth="yes"/>
      <point x="169.0" y="485.0"/>
      <point x="120.0" y="465.0"/>
      <point x="85.0" y="437.0" type="curve"/>
      <point x="85.0" y="469.0" type="line"/>
      <point x="126.0" y="495.0"/>
      <point x="170.0" y="510.0"/>
      <point x="227.0" y="510.0" type="curve" smooth="yes"/>
      <point x="376.0" y="510.0"/>
      <point x="482.0" y="395.0"/>
      <point x="482.0" y="250.0" type="curve" smooth="yes"/>
      <point x="481.0" y="-122.0" type="line" smooth="yes"/>
      <point x="481.0" y="-241.0"/>
      <point x="384.0" y="-338.0"/>
      <point x="265.0" y="-338.0" type="curve" smooth="yes"/>
      <point x="146.0" y="-338.0"/>
      <point x="49.0" y="-241.0"/>
      <point x="49.0" y="-122.0" type="curve" smooth="yes"/>
      <point x="49.0" y="-3.0"/>
      <point x="146.0" y="94.0"/>
      <point x="265.0" y="94.0" type="curve" smooth="yes"/>
      <point x="312.0" y="94.0"/>
      <point x="356.0" y="79.0"/>
      <point x="392.0" y="53.0" type="curve"/>
      <point x="392.0" y="20.0" type="line"/>
      <point x="358.0" y="50.0"/>
      <point x="314.0" y="69.0"/>
      <point x="265.0" y="69.0" type="curve" smooth="yes"/>
      <point x="160.0" y="69.0"/>
      <point x="74.0" y="-17.0"/>
      <point x="74.0" y="-122.0" type="curve" smooth="yes"/>
      <point x="74.0" y="-227.0"/>
      <point x="160.0" y="-313.0"/>
      <point x="265.0" y="-313.0" type="curve" smooth="yes"/>
      <point x="370.0" y="-313.0"/>
      <point x="456.0" y="-227.0"/>
      <point x="456.0" y="-122.0" type="curve" smooth="yes"/>
    </contour>
  </outline>
</glyph>
<glyph name="church" format="2">
  <advance width="719"/>
  <unicode hex="E65E"/>
  <outline>
    <contour>
      <point x="110.0" y="475.0" type="curve" smooth="yes"/>
      <point x="94.0" y="475.0"/>
      <point x="75.0" y="477.0"/>
      <point x="55.0" y="482.0" type="curve"/>
      <point x="55.0" y="508.0" type="line"/>
      <point x="83.0" y="501.0"/>
      <point x="102.0" y="500.0"/>
      <point x="116.0" y="500.0" type="curve" smooth="yes"/>
      <point x="249.0" y="500.0"/>
      <point x="347.0" y="595.0"/>
      <point x="347.0" y="728.0" type="curve" smooth="yes"/>
      <point x="347.0" y="758.0" type="line"/>
      <point x="364.0" y="758.0" type="line"/>
      <point x="364.0" y="727.0" type="line" smooth="yes"/>
      <point x="364.0" y="581.0"/>
      <point x="259.0" y="475.0"/>
    </contour>
    <contour>
      <point x="372.0" y="828.0" type="line"/>
      <point x="372.0" y="251.0" type="line" smooth="yes"/>
      <point x="372.0" y="118.0"/>
      <point x="470.0" y="15.0"/>
      <point x="603.0" y="15.0" type="curve" smooth="yes"/>
      <point x="617.0" y="15.0"/>
      <point x="636.0" y="16.0"/>
      <point x="664.0" y="23.0" type="curve"/>
      <point x="664.0" y="-3.0" type="line"/>
      <point x="644.0" y="-8.0"/>
      <point x="619.0" y="-10.0"/>
      <point x="603.0" y="-10.0" type="curve" smooth="yes"/>
      <point x="454.0" y="-10.0"/>
      <point x="347.0" y="104.0"/>
      <point x="347.0" y="250.0" type="curve" smooth="yes"/>
      <point x="347.0" y="828.0" type="line"/>
    </contour>
  </outline>
</glyph>
<glyph name="uniE65E" format="2">
  <advance width="655"/>
  <unicode hex="E65E"/>
  <outline>
    <contour>
      <point x="78.0" y="475.0" type="curve" smooth="yes"/>
      <point x="62.0" y="475.0"/>
      <point x="43.0" y="477.0"/>
      <point x="23.0" y="482.0" type="curve"/>
      <point x="23.0" y="508.0" type="line"/>
      <point x="51.0" y="501.0"/>
      <point x="70.0" y="500.0"/>
      <point x="84.0" y="500.0" type="curve" smooth="yes"/>
      <point x="217.0" y="500.0"/>
      <point x="315.0" y="595.0"/>
      <point x="315.0" y="728.0" type="curve" smooth="yes"/>
      <point x="315.0" y="758.0" type="line"/>
      <point x="332.0" y="758.0" type="line"/>
      <point x="332.0" y="727.0" type="line" smooth="yes"/>
      <point x="332.0" y="581.0"/>
      <point x="227.0" y="475.0"/>
    </contour>
    <contour>
      <point x="340.0" y="828.0" type="line"/>
      <point x="340.0" y="251.0" type="line" smooth="yes"/>
      <point x="340.0" y="118.0"/>
      <point x="438.0" y="15.0"/>
      <point x="571.0" y="15.0" type="curve" smooth="yes"/>
      <point x="585.0" y="15.0"/>
      <point x="604.0" y="16.0"/>
      <point x="632.0" y="23.0" type="curve"/>
      <point x="632.0" y="-3.0" type="line"/>
      <point x="612.0" y="-8.0"/>
      <point x="587.0" y="-10.0"/>
      <point x="571.0" y="-10.0" type="curve" smooth="yes"/>
      <point x="422.0" y="-10.0"/>
      <point x="315.0" y="104.0"/>
      <point x="315.0" y="250.0" type="curve" smooth="yes"/>
      <point x="315.0" y="828.0" type="line"/>
    </contour>
  </outline>
</glyph>
<glyph name="uniE662" format="2">
  <advance width="401"/>
  <unicode hex="E662"/>
  <outline>
    <contour>
      <point x="95.0" y="0.0" type="line"/>
      <point x="70.0" y="0.0" type="line"/>
      <point x="70.0" y="578.0" type="line" smooth="yes"/>
      <point x="70.0" y="724.0"/>
      <point x="177.0" y="838.0"/>
      <point x="326.0" y="838.0" type="curve" smooth="yes"/>
      <point x="342.0" y="838.0"/>
      <point x="367.0" y="836.0"/>
      <point x="387.0" y="831.0" type="curve"/>
      <point x="387.0" y="805.0" type="line"/>
      <point x="359.0" y="812.0"/>
      <point x="340.0" y="813.0"/>
      <point x="326.0" y="813.0" type="curve" smooth="yes"/>
      <point x="193.0" y="813.0"/>
      <point x="95.0" y="710.0"/>
      <point x="95.0" y="577.0" type="curve" smooth="yes"/>
    </contour>
  </outline>
</glyph>
<glyph name="inkling" format="2">
  <advance width="572"/>
  <unicode hex="E664"/>
  <outline>
    <contour>
      <point x="477.0" y="622.0" type="line" smooth="yes"/>
      <point x="477.0" y="727.0"/>
      <point x="391.0" y="813.0"/>
      <point x="286.0" y="813.0" type="curve" smooth="yes"/>
      <point x="181.0" y="813.0"/>
      <point x="95.0" y="727.0"/>
      <point x="95.0" y="622.0" type="curve" smooth="yes"/>
      <point x="95.0" y="400.0" type="line" smooth="yes"/>
      <point x="95.0" y="296.0"/>
      <point x="181.0" y="208.0"/>
      <point x="286.0" y="208.0" type="curve" smooth="yes"/>
      <point x="391.0" y="208.0"/>
      <point x="477.0" y="296.0"/>
      <point x="477.0" y="400.0" type="curve" smooth="yes"/>
    </contour>
    <contour>
      <point x="70.0" y="622.0" type="line" smooth="yes"/>
      <point x="70.0" y="741.0"/>
      <point x="167.0" y="838.0"/>
      <point x="286.0" y="838.0" type="curve" smooth="yes"/>
      <point x="405.0" y="838.0"/>
      <point x="502.0" y="741.0"/>
      <point x="502.0" y="622.0" type="curve" smooth="yes"/>
      <point x="502.0" y="399.0" type="line" smooth="yes"/>
      <point x="502.0" y="279.0"/>
      <point x="405.0" y="188.0"/>
      <point x="286.0" y="188.0" type="curve" smooth="yes"/>
      <point x="167.0" y="188.0"/>
      <point x="70.0" y="279.0"/>
      <point x="70.0" y="399.0" type="curve" smooth="yes"/>
    </contour>
    <contour>
      <point x="70.0" y="2.0" type="line" smooth="yes"/>
      <point x="70.0" y="123.0"/>
      <point x="167.0" y="213.0"/>
      <point x="286.0" y="213.0" type="curve" smooth="yes"/>
      <point x="405.0" y="213.0"/>
      <point x="502.0" y="123.0"/>
      <point x="502.0" y="2.0" type="curve" smooth="yes"/>
      <point x="502.0" y="0.0" type="line"/>
      <point x="477.0" y="0.0" type="line"/>
      <point x="477.0" y="1.0" type="line" smooth="yes"/>
      <point x="477.0" y="106.0"/>
      <point x="391.0" y="193.0"/>
      <point x="286.0" y="193.0" type="curve" smooth="yes"/>
      <point x="181.0" y="193.0"/>
      <point x="95.0" y="106.0"/>
      <point x="95.0" y="1.0" type="curve" smooth="yes"/>
      <point x="95.0" y="0.0" type="line"/>
      <point x="70.0" y="0.0" type="line"/>
    </contour>
  </outline>
</glyph>
<glyph name="uniE664" format="2">
  <advance width="508"/>
  <unicode hex="E664"/>
  <outline>
    <contour>
      <point x="38.0" y="215.0" type="line" smooth="yes"/>
      <point x="38.0" y="336.0"/>
      <point x="135.0" y="426.0"/>
      <point x="254.0" y="426.0" type="curve" smooth="yes"/>
      <point x="373.0" y="426.0"/>
      <point x="470.0" y="336.0"/>
      <point x="470.0" y="215.0" type="curve" smooth="yes"/>
      <point x="470.0" y="0.0" type="line"/>
      <point x="445.0" y="0.0" type="line"/>
      <point x="445.0" y="214.0" type="line" smooth="yes"/>
      <point x="445.0" y="319.0"/>
      <point x="359.0" y="406.0"/>
      <point x="254.0" y="406.0" type="curve" smooth="yes"/>
      <point x="149.0" y="406.0"/>
      <point x="63.0" y="319.0"/>
      <point x="63.0" y="214.0" type="curve" smooth="yes"/>
      <point x="63.0" y="0.0" type="line"/>
      <point x="38.0" y="0.0" type="line"/>
    </contour>
    <contour>
      <point x="445.0" y="622.0" type="curve" smooth="yes"/>
      <point x="445.0" y="727.0"/>
      <point x="359.0" y="813.0"/>
      <point x="254.0" y="813.0" type="curve" smooth="yes"/>
      <point x="149.0" y="813.0"/>
      <point x="63.0" y="727.0"/>
      <point x="63.0" y="622.0" type="curve" smooth="yes"/>
      <point x="63.0" y="517.0"/>
      <point x="149.0" y="431.0"/>
      <point x="254.0" y="431.0" type="curve" smooth="yes"/>
      <point x="359.0" y="431.0"/>
      <point x="445.0" y="517.0"/>
    </contour>
    <contour>
      <point x="470.0" y="622.0" type="curve" smooth="yes"/>
      <point x="470.0" y="501.0"/>
      <point x="373.0" y="411.0"/>
      <point x="254.0" y="411.0" type="curve" smooth="yes"/>
      <point x="135.0" y="411.0"/>
      <point x="38.0" y="501.0"/>
      <point x="38.0" y="622.0" type="curve" smooth="yes"/>
      <point x="38.0" y="741.0"/>
      <point x="135.0" y="838.0"/>
      <point x="254.0" y="838.0" type="curve" smooth="yes"/>
      <point x="373.0" y="838.0"/>
      <point x="470.0" y="741.0"/>
    </contour>
  </outline>
</glyph>
<glyph name="nun" format="2">
  <advance width="500"/>
  <unicode hex="E666"/>
  <outline>
    <contour>
      <point x="95.0" y="499.0" type="line" smooth="yes"/>
      <point x="95.0" y="394.0"/>
      <point x="165.0" y="344.0"/>
      <point x="250.0" y="344.0" type="curve" smooth="yes"/>
      <point x="335.0" y="344.0"/>
      <point x="405.0" y="394.0"/>
      <point x="405.0" y="499.0" type="curve" smooth="yes"/>
      <point x="405.0" y="500.0" type="line"/>
      <point x="430.0" y="500.0" type="line"/>
      <point x="430.0" y="498.0" type="line" smooth="yes"/>
      <point x="430.0" y="377.0"/>
      <point x="349.0" y="324.0"/>
      <point x="250.0" y="324.0" type="curve" smooth="yes"/>
      <point x="151.0" y="324.0"/>
      <point x="70.0" y="377.0"/>
      <point x="70.0" y="498.0" type="curve" smooth="yes"/>
      <point x="70.0" y="500.0" type="line"/>
      <point x="95.0" y="500.0" type="line"/>
    </contour>
    <contour>
      <point x="95.0" y="169.0" type="curve" smooth="yes"/>
      <point x="95.0" y="84.0"/>
      <point x="165.0" y="15.0"/>
      <point x="250.0" y="15.0" type="curve" smooth="yes"/>
      <point x="335.0" y="15.0"/>
      <point x="405.0" y="84.0"/>
      <point x="405.0" y="169.0" type="curve" smooth="yes"/>
      <point x="405.0" y="256.0"/>
      <point x="335.0" y="324.0"/>
      <point x="250.0" y="324.0" type="curve" smooth="yes"/>
      <point x="165.0" y="324.0"/>
      <point x="95.0" y="256.0"/>
    </contour>
    <contour>
      <point x="70.0" y="169.0" type="curve" smooth="yes"/>
      <point x="70.0" y="270.0"/>
      <point x="151.0" y="344.0"/>
      <point x="250.0" y="344.0" type="curve" smooth="yes"/>
      <point x="349.0" y="344.0"/>
      <point x="430.0" y="270.0"/>
      <point x="430.0" y="169.0" type="curve" smooth="yes"/>
      <point x="430.0" y="69.0"/>
      <point x="347.0" y="-10.0"/>
      <point x="250.0" y="-10.0" type="curve" smooth="yes"/>
      <point x="153.0" y="-10.0"/>
      <point x="70.0" y="69.0"/>
    </contour>
  </outline>
</glyph>
<glyph name="loll" format="2">
  <advance width="575"/>
  <unicode hex="E667"/>
  <outline>
    <contour>
      <point x="55.0" y="23.0" type="line"/>
      <point x="79.0" y="17.0"/>
      <point x="93.0" y="15.0"/>
      <point x="116.0" y="15.0" type="curve" smooth="yes"/>
      <point x="210.0" y="15.0"/>
      <point x="282.0" y="87.0"/>
      <point x="282.0" y="201.0" type="curve" smooth="yes"/>
      <point x="282.0" y="224.0"/>
      <point x="280.0" y="238.0"/>
      <point x="274.0" y="262.0" type="curve"/>
      <point x="298.0" y="256.0"/>
      <point x="312.0" y="254.0"/>
      <point x="335.0" y="254.0" type="curve" smooth="yes"/>
      <point x="429.0" y="254.0"/>
      <point x="501.0" y="325.0"/>
      <point x="501.0" y="439.0" type="curve" smooth="yes"/>
      <point x="501.0" y="462.0"/>
      <point x="499.0" y="476.0"/>
      <point x="493.0" y="500.0" type="curve"/>
      <point x="518.0" y="500.0" type="line"/>
      <point x="522.0" y="488.0"/>
      <point x="526.0" y="452.0"/>
      <point x="526.0" y="439.0" type="curve" smooth="yes"/>
      <point x="526.0" y="309.0"/>
      <point x="445.0" y="229.0"/>
      <point x="335.0" y="229.0" type="curve" smooth="yes"/>
      <point x="327.0" y="229.0"/>
      <point x="314.0" y="230.0"/>
      <point x="303.0" y="233.0" type="curve"/>
      <point x="306.0" y="222.0"/>
      <point x="307.0" y="209.0"/>
      <point x="307.0" y="201.0" type="curve" smooth="yes"/>
      <point x="307.0" y="71.0"/>
      <point x="226.0" y="-10.0"/>
      <point x="116.0" y="-10.0" type="curve" smooth="yes"/>
      <point x="98.0" y="-10.0"/>
      <point x="81.0" y="-9.0"/>
      <point x="55.0" y="-3.0" type="curve"/>
    </contour>
  </outline>
</glyph>
<glyph name="loch" format="2">
  <advance width="623"/>
  <unicode hex="E669"/>
  <outline>
    <contour>
      <point x="539.0" y="255.0" type="line" smooth="yes"/>
      <point x="539.0" y="384.0"/>
      <point x="453.0" y="485.0"/>
      <point x="324.0" y="485.0" type="curve"/>
      <point x="324.0" y="510.0" type="line"/>
      <point x="468.0" y="510.0"/>
      <point x="564.0" y="400.0"/>
      <point x="564.0" y="255.0" type="curve" smooth="yes"/>
      <point x="564.0" y="0.0" type="line"/>
      <point x="539.0" y="0.0" type="line"/>
    </contour>
    <contour>
      <point x="299.0" y="828.0" type="line"/>
      <point x="324.0" y="828.0" type="line"/>
      <point x="324.0" y="0.0" type="line"/>
      <point x="299.0" y="0.0" type="line"/>
    </contour>
    <contour>
      <point x="299.0" y="485.0" type="line"/>
      <point x="165.0" y="485.0"/>
      <point x="74.0" y="384.0"/>
      <point x="74.0" y="255.0" type="curve" smooth="yes"/>
      <point x="74.0" y="126.0"/>
      <point x="165.0" y="25.0"/>
      <point x="299.0" y="25.0" type="curve"/>
      <point x="299.0" y="0.0" type="line"/>
      <point x="150.0" y="0.0"/>
      <point x="49.0" y="110.0"/>
      <point x="49.0" y="255.0" type="curve" smooth="yes"/>
      <point x="49.0" y="400.0"/>
      <point x="150.0" y="510.0"/>
      <point x="299.0" y="510.0" type="curve"/>
    </contour>
  </outline>
</glyph>
<glyph name="uniE669" format="2">
  <advance width="628"/>
  <unicode hex="E669"/>
  <outline>
    <contour>
      <point x="324.0" y="510.0" type="line"/>
      <point x="473.0" y="510.0"/>
      <point x="579.0" y="396.0"/>
      <point x="579.0" y="251.0" type="curve" smooth="yes"/>
      <point x="579.0" y="128.0"/>
      <point x="502.0" y="28.0"/>
      <point x="388.0" y="0.0" type="curve"/>
      <point x="388.0" y="27.0" type="line"/>
      <point x="488.0" y="55.0"/>
      <point x="554.0" y="144.0"/>
      <point x="554.0" y="251.0" type="curve" smooth="yes"/>
      <point x="554.0" y="380.0"/>
      <point x="458.0" y="485.0"/>
      <point x="324.0" y="485.0" type="curve"/>
    </contour>
    <contour>
      <point x="299.0" y="828.0" type="line"/>
      <point x="324.0" y="828.0" type="line"/>
      <point x="324.0" y="0.0" type="line"/>
      <point x="299.0" y="0.0" type="line"/>
    </contour>
    <contour>
      <point x="299.0" y="485.0" type="line"/>
      <point x="165.0" y="485.0"/>
      <point x="74.0" y="384.0"/>
      <point x="74.0" y="255.0" type="curve" smooth="yes"/>
      <point x="74.0" y="126.0"/>
      <point x="165.0" y="25.0"/>
      <point x="299.0" y="25.0" type="curve"/>
      <point x="299.0" y="0.0" type="line"/>
      <point x="150.0" y="0.0"/>
      <point x="49.0" y="110.0"/>
      <point x="49.0" y="255.0" type="curve" smooth="yes"/>
      <point x="49.0" y="400.0"/>
      <point x="150.0" y="510.0"/>
      <point x="299.0" y="510.0" type="curve"/>
    </contour>
  </outline>
</glyph>
<glyph name="axe" format="2">
  <advance width="625"/>
  <unicode hex="E66B"/>
  <outline>
    <contour>
      <point x="315.0" y="247.0" type="curve" smooth="yes"/>
      <point x="448.0" y="247.0"/>
      <point x="560.0" y="338.0"/>
      <point x="560.0" y="484.0" type="curve" smooth="yes"/>
      <point x="560.0" y="500.0" type="line"/>
      <point x="535.0" y="500.0" type="line"/>
      <point x="535.0" y="485.0" type="line" smooth="yes"/>
      <point x="535.0" y="348.0"/>
      <point x="421.0" y="267.0"/>
      <point x="315.0" y="267.0" type="curve" smooth="yes"/>
      <point x="209.0" y="267.0"/>
      <point x="95.0" y="348.0"/>
      <point x="95.0" y="485.0" type="curve" smooth="yes"/>
      <point x="95.0" y="828.0" type="line"/>
      <point x="70.0" y="828.0" type="line"/>
      <point x="70.0" y="484.0" type="line" smooth="yes"/>
      <point x="70.0" y="338.0"/>
      <point x="182.0" y="247.0"/>
    </contour>
    <contour>
      <point x="315.0" y="242.0" type="curve" smooth="yes"/>
      <point x="436.0" y="242.0"/>
      <point x="535.0" y="161.0"/>
      <point x="535.0" y="24.0" type="curve" smooth="yes"/>
      <point x="535.0" y="-1.0" type="line"/>
      <point x="560.0" y="-1.0" type="line"/>
      <point x="560.0" y="25.0" type="line" smooth="yes"/>
      <point x="560.0" y="171.0"/>
      <point x="439.0" y="262.0"/>
      <point x="315.0" y="262.0" type="curve" smooth="yes"/>
      <point x="191.0" y="262.0"/>
      <point x="70.0" y="171.0"/>
      <point x="70.0" y="25.0" type="curve" smooth="yes"/>
      <point x="70.0" y="-1.0" type="line"/>
      <point x="95.0" y="-1.0" type="line"/>
      <point x="95.0" y="24.0" type="line" smooth="yes"/>
      <point x="95.0" y="161.0"/>
      <point x="194.0" y="242.0"/>
    </contour>
  </outline>
</glyph>
<glyph name="qsbracketleft" format="2">
  <advance width="385"/>
  <unicode hex="E66E"/>
  <outline>
    <contour>
      <point x="63.0" y="828.0" type="line"/>
      <point x="63.0" y="-303.0" type="line"/>
      <point x="355.0" y="-303.0" type="line"/>
      <point x="355.0" y="-328.0" type="line"/>
      <point x="38.0" y="-328.0" type="line"/>
      <point x="38.0" y="828.0" type="line"/>
    </contour>
  </outline>
</glyph>
<glyph name="uniE670" format="2">
  <advance width="165"/>
  <unicode hex="E670"/>
  <outline>
    <contour>
      <point x="70.0" y="500.0" type="line"/>
      <point x="95.0" y="500.0" type="line"/>
      <point x="95.0" y="0.0" type="line"/>
      <point x="70.0" y="0.0" type="line"/>
    </contour>
  </outline>
</glyph>
<glyph name="uniE671" format="2">
  <advance width="490"/>
  <unicode hex="E671"/>
  <outline>
    <contour>
      <point x="50.0" y="258.0" type="line" smooth="yes"/>
      <point x="50.0" y="405.0"/>
      <point x="161.0" y="500.0"/>
      <point x="285.0" y="500.0" type="curve" smooth="yes"/>
      <point x="440.0" y="500.0" type="line"/>
      <point x="440.0" y="0.0" type="line"/>
      <point x="415.0" y="0.0" type="line"/>
      <point x="415.0" y="475.0" type="line"/>
      <point x="285.0" y="475.0" type="line" smooth="yes"/>
      <point x="179.0" y="475.0"/>
      <point x="75.0" y="394.0"/>
      <point x="75.0" y="257.0" type="curve" smooth="yes"/>
      <point x="75.0" y="0.0" type="line"/>
      <point x="50.0" y="0.0" type="line"/>
    </contour>
  </outline>
</glyph>
<glyph name="age" format="2">
  <advance width="442"/>
  <unicode hex="E673"/>
  <outline>
    <contour>
      <point x="326.0" y="-10.0" type="curve" smooth="yes"/>
      <point x="177.0" y="-10.0"/>
      <point x="70.0" y="104.0"/>
      <point x="70.0" y="250.0" type="curve" smooth="yes"/>
      <point x="70.0" y="373.0" type="line" smooth="yes"/>
      <point x="70.0" y="449.0"/>
      <point x="131.0" y="510.0"/>
      <point x="207.0" y="510.0" type="curve" smooth="yes"/>
      <point x="283.0" y="510.0"/>
      <point x="344.0" y="449.0"/>
      <point x="344.0" y="373.0" type="curve" smooth="yes"/>
      <point x="344.0" y="297.0"/>
      <point x="283.0" y="236.0"/>
      <point x="207.0" y="236.0" type="curve" smooth="yes"/>
      <point x="190.0" y="236.0"/>
      <point x="175.0" y="239.0"/>
      <point x="160.0" y="244.0" type="curve"/>
      <point x="160.0" y="274.0" type="line"/>
      <point x="174.0" y="267.0"/>
      <point x="190.0" y="263.0"/>
      <point x="207.0" y="263.0" type="curve" smooth="yes"/>
      <point x="268.0" y="263.0"/>
      <point x="318.0" y="313.0"/>
      <point x="318.0" y="374.0" type="curve" smooth="yes"/>
      <point x="318.0" y="435.0"/>
      <point x="268.0" y="485.0"/>
      <point x="207.0" y="485.0" type="curve" smooth="yes"/>
      <point x="146.0" y="485.0"/>
      <point x="95.0" y="434.0"/>
      <point x="95.0" y="373.0" type="curve" smooth="yes"/>
      <point x="95.0" y="251.0" type="line" smooth="yes"/>
      <point x="95.0" y="118.0"/>
      <point x="193.0" y="15.0"/>
      <point x="326.0" y="15.0" type="curve" smooth="yes"/>
      <point x="340.0" y="15.0"/>
      <point x="359.0" y="16.0"/>
      <point x="387.0" y="23.0" type="curve"/>
      <point x="387.0" y="-3.0" type="line"/>
      <point x="367.0" y="-8.0"/>
      <point x="342.0" y="-10.0"/>
    </contour>
  </outline>
</glyph>
<glyph name=".notdef" format="2">
  <advance width="652"/>
  <outline>
    <contour>
      <point x="575.0" y="802.0" type="line"/>
      <point x="99.0" y="6.0" type="line"/>
      <point x="79.0" y="26.0" type="line"/>
      <point x="557.0" y="822.0" type="line"/>
    </contour>
    <contour>
      <point x="79.0" y="802.0" type="line"/>
      <point x="97.0" y="822.0" type="line"/>
      <point x="575.0" y="26.0" type="line"/>
      <point x="555.0" y="6.0" type="line"/>
    </contour>
    <contour>
      <point x="95.0" y="803.0" type="line"/>
      <point x="95.0" y="25.0" type="line"/>
      <point x="557.0" y="25.0" type="line"/>
      <point x="557.0" y="803.0" type="line"/>
    </contour>
    <contour>
      <point x="70.0" y="828.0" type="line"/>
      <point x="582.0" y="828.0" type="line"/>
      <point x="582.0" y="0.0" type="line"/>
      <point x="70.0" y="0.0" type="line"/>
    </contour>
  </outline>
</glyph>
<glyph name="age.alt" format="2">
  <advance width="629"/>
  <outline>
    <contour>
      <point x="304.0" y="25.0" type="curve" smooth="yes"/>
      <point x="549.0" y="25.0" type="line"/>
      <point x="549.0" y="0.0" type="line"/>
      <point x="304.0" y="0.0" type="line" smooth="yes"/>
      <point x="155.0" y="0.0"/>
      <point x="49.0" y="105.0"/>
      <point x="49.0" y="250.0" type="curve" smooth="yes"/>
      <point x="49.0" y="500.0" type="line"/>
      <point x="74.0" y="500.0" type="line"/>
      <point x="74.0" y="366.062400542" type="line"/>
      <point x="74.0" y="250.0" type="line" smooth="yes"/>
      <point x="74.0" y="121.0"/>
      <point x="170.0" y="25.0"/>
    </contour>
    <contour>
      <point x="138.0" y="450.738399173" type="line"/>
      <point x="181.501681784" y="487.851312985"/>
      <point x="238.609999406" y="510.0"/>
      <point x="304.0" y="510.0" type="curve" smooth="yes"/>
      <point x="453.0" y="510.0"/>
      <point x="559.0" y="395.0"/>
      <point x="559.0" y="250.0" type="curve" smooth="yes"/>
      <point x="559.0" y="188.881835938"/>
      <point x="540.166992188" y="133.092773438"/>
      <point x="507.219726562" y="89.0" type="curve"/>
      <point x="473.774414062" y="89.0" type="line"/>
      <point x="511.770507812" y="131.174804688"/>
      <point x="534.0" y="187.924804688"/>
      <point x="534.0" y="250.0" type="curve" smooth="yes"/>
      <point x="534.0" y="379.0"/>
      <point x="438.0" y="485.0"/>
      <point x="304.0" y="485.0" type="curve" smooth="yes"/>
      <point x="236.587914323" y="485.0"/>
      <point x="178.79304814" y="458.173019308"/>
      <point x="138.0" y="415.086673092" type="curve"/>
    </contour>
  </outline>
</glyph>
